<svg width="5000" height="4000" xmlns="http://www.w3.org/2000/svg">
 <style type="text/css">.st0{fill:#1DDCED;}
	.st1{fill:#62E2F7;}
	.st2{fill:#52A000;}
	.st3{fill:#77460C;}
	.st4{fill:#4C9F24;}
	.st5{fill:#CB7C22;}
	.st6{fill:none;stroke:#1DDCED;stroke-width:3;stroke-miterlimit:10;}
	.st7{fill:#81EEF8;}
	.st8{fill:#025FF2;}
	.st9{fill:#00FFFF;}
	.st10{fill:#AAF5F9;}
	.st11{fill:#FFE800;}
	.st12{fill:#FAB007;}
	.st13{fill:#025FF2;stroke:#025FF2;stroke-width:6;stroke-linecap:round;stroke-linejoin:round;stroke-miterlimit:10;}
	.st14{fill:none;stroke:#025FF2;stroke-width:6;stroke-linecap:round;stroke-linejoin:round;stroke-miterlimit:10;}
	.st15{fill:#2A95F1;}
	.st16{fill:none;stroke:#009100;stroke-width:7;stroke-linecap:round;stroke-linejoin:round;stroke-miterlimit:10;}
	.st17{fill:none;stroke:#0000FF;stroke-width:2;stroke-miterlimit:10;}
	.st18{fill:#0000FF;}
	.st19{fill:#0129F2;}
	.st20{fill:#49B3FD;}</style>

 <g>
  <title>background</title>
  <rect fill="none" id="canvas_background" height="402" width="582" y="-1" x="-1"/>
 </g>
 <g>
  <title>Layer 1</title>
  <rect id="svg_1" height="4026.6" width="5058.1" class="st0" y="-20.73333" x="-21.833496"/>
  <rect id="svg_2" height="69.9" width="82.3" class="st1" y="3430.900027" x="4482.867725"/>
  <path id="svg_3" d="m5539.067725,4042.000027c-122.6,-209 -619.6,-365.3 -1214.1,-365.3s-1091.5,156.3 -1214.1,365.3l2428.2,0z" class="st2"/>
  <path id="svg_4" d="m4456.967725,3727.200027c7.8,-6.4 39.6,4.3 42,18c6.6,-17.7 41.6,-16.7 41.6,-16.7l0,12.4l33.3,-4.7l-2.7,-158.6l-45.1,-20l-34.1,112.7l-38.5,49.4l3.5,7.5z" class="st3"/>
  <g id="svg_5">
   <path id="svg_6" d="m4473.967725,2912.800027c0,0 0,0 0,0.1c0,1.2 -0.5,11.4 -19.1,18.9c-26,-27 -12,-89 -12,-89s-17,32 -32.8,39c-7.9,-9.8 -23.3,-31.6 -21.7,-65.2c0.7,-1.4 1.3,-2.8 1.9,-4.1c5.6,-13.4 10.6,-27 14.9,-40.8c-3.8,17.6 6.2,37.7 23.1,44.3c12.7,5 27.8,1.7 38.4,-6.8c1.6,12.5 2.8,25.4 3.6,38.6c1.2,20 2.4,41.9 3.7,65z" class="st4"/>
   <path id="svg_7" d="m3895.067725,2651.100027c-7.2,10.7 -13.9,26.6 -4.1,34.9c-16.1,95.3 -100.3,8.9 -117.6,47.1c-4.5,9.9 -22.3,-2.1 -29.5,-10.2c-1.1,14.6 -18.5,22.5 -33.1,21.5c-6.6,-0.4 -13.6,-2.4 -17.7,-7.5c-2.7,-3.3 -3.4,-8.3 -2,-12.2c1.5,-1.6 2.9,-3.2 4.2,-4.9c-2.1,1 -3.4,2.8 -4.2,4.9c-8.6,9.1 -19.5,15.9 -31.5,19.5c-7.1,2.2 -15.3,3.1 -21.7,-0.6c-11.4,-6.5 -11.3,-22.7 -9.8,-35.8c-8.8,12.3 -11.9,27.8 -18.9,41.3c-7,13.5 -20.8,25.8 -35.7,22.8c-9.7,-2 -21.3,-5.3 -27.7,-12.8c-14.9,-17.4 -19,-61.2 -19.5,-71.1c5.7,2 11.8,3 17.9,2.8c24.1,-0.8 46.2,-20.2 50.1,-43.9c8.5,20.1 30.7,33.5 52.4,31.6c21.7,-1.9 41.3,-18.8 46.2,-40.1c-1.1,11.9 8.3,22.7 19.3,27.3c11,4.6 23.4,4.3 35.3,4c7.8,-0.2 17,-1.2 21.1,-7.9c2.4,-3.9 2.3,-8.6 2.9,-13.1c3,-20.4 30.5,-38.6 50.9,-35.7l0.9,0.2c-1.6,9.7 -1.3,20 3.7,28.3c12.9,21.2 44.4,16.8 68.1,9.6z" class="st4"/>
   <path id="svg_8" d="m4001.967725,2572.400027c3.1,-4.1 5.8,-8.4 8.2,-12.9c-4.4,3.1 -7.1,7.8 -8.2,12.9zm193.8,-4.8c0,-3 -0.4,-6 -1.3,-9c-0.1,3.2 0.4,6.2 1.3,9zm209.4,204.1c0.6,-1.9 1.2,-3.8 1.8,-5.7c-0.8,1.8 -1.4,3.7 -1.8,5.7zm468.4,2.2c0.8,-1.6 1.6,-3.2 2.4,-4.8c-0.8,1.5 -1.6,3.1 -2.4,4.8zm223.8,-38.9c5.9,14.3 3.5,32.2 0.6,48.1c-1.3,7.1 -3.6,15.5 -10.5,17.8c-5.5,1.9 -11.3,-1.1 -16.2,-4.3c-12.3,-8 -23.4,-17.9 -32.9,-29.1c-1.9,-3 -4.2,-5.9 -6.7,-8.5c2.1,2.9 4.4,5.7 6.7,8.5c8.2,12.9 11.1,29.1 7.4,44c-0.6,2.4 -1.4,4.8 -2.8,6.8c-1.4,2 -3.4,3.6 -5.6,4.8c-3.7,2.1 -7.8,3.4 -12.1,3.7c2.2,23.1 -26,23.3 -26,23.3c8.1,10.3 7.2,26.6 -2,35.9c-9.2,9.3 -25.5,10.4 -35.9,2.4c-11.9,-9.2 -14.8,-26.9 -27,-35.9c1.8,34.9 -33.9,66.6 -68.3,60.8c-3.3,-0.5 -6.7,-1.4 -9.2,-3.6c-6,-5.2 -4.4,-14.6 -3.8,-22.5c1.1,-16.2 -4.5,-32.7 -15.2,-44.8c0.1,24.3 -11.2,48.4 -30,63.8c-11.2,-9.8 -18.4,-23.9 -20.2,-38.7c0.2,-4.6 0.2,-9.1 -0.1,-13.7c-0.5,4.5 -0.5,9.1 0.1,13.7c-0.9,20.4 -5.9,40.7 -14.8,59.1c-2.3,4.8 -5.3,9.9 -10.4,11.6c-7.1,2.4 -14.4,-2.8 -19.7,-8c-18.9,-18.8 -32.3,-43 -37.9,-69.1c4.4,18.7 2.5,38.8 -5.4,56.3c-17.8,-5.7 -32.2,-21.1 -36.9,-39.2c3.6,16.6 4.4,33.9 2.3,50.8c-0.3,2.5 -0.9,5.3 -3.1,6.5c-1.9,1 -4.2,0.4 -6.2,-0.2c-9.9,-3.4 -19,-9.3 -26.3,-16.9c-10.4,-84.7 -18.5,-128.8 -5.6,-156.5c42.5,-91.4 134,-121.5 135.2,-121.9c-5.7,-8.4 -7.5,-19.8 -4.4,-28.9c4.1,-3.5 7.6,-7.7 10.3,-12.5c-5.1,2.8 -8.5,7.3 -10.3,12.5c-17.5,15 -45.6,17.8 -64.5,4.1c-11.1,-8.1 -17.8,-21 -19.5,-34.6l-0.5,0.1c-80.8,47.8 -108.2,106.4 -128.9,150.3c-4.4,-21.7 -19.4,-57.6 -37.8,-95.4l-0.5,-0.1c0,0.1 -0.1,0.3 -0.1,0.4c-6.2,18.9 -21,35.3 -40.1,41.4c-9.1,2.9 -18.7,3.4 -28,1.9c14.2,37.9 25.7,81.3 31.9,130.1c-10.6,8.5 -25.6,11.8 -38.4,6.8c-16.9,-6.6 -26.9,-26.8 -23.1,-44.3c-4.4,13.8 -9.3,27.4 -14.9,40.8c-0.6,1.4 -1.2,2.8 -1.9,4.1c-1.4,2.8 -3.2,5.3 -5.8,7c-8.3,5.3 -19.8,-2.8 -21.8,-12.5c4.9,-9 7.1,-19.7 9,-29.9c-5.2,8.9 -10.6,18.6 -9.2,28.8c0.1,0.4 0.1,0.8 0.2,1.1c-1.8,3.2 -3.9,6.3 -6.5,9c-9.9,10.2 -29,12.6 -37.3,1.1c-3.2,-4.4 -4.2,-10 -4.9,-15.4c-1.3,-10.4 -1.6,-20.9 -0.9,-31.4c3.6,-4.5 5,-10.4 1.7,-15.2c-0.8,5 -1.4,10.1 -1.7,15.2c-3.5,4.4 -9.2,7.5 -14.9,7.1c-11.5,-0.7 -20.5,-10 -27.3,-19.3c-13.2,-18.1 -22.8,-38.9 -27.9,-60.7c-2.2,15.4 -5.2,30.7 -8.9,45.8c-1.3,5.3 -2.8,10.8 -6.6,14.7c-9.7,9.9 -28.2,1.9 -33.2,-11c-2.7,-6.9 -2.9,-14.3 -1.8,-21.8c2.1,-6.2 3.6,-12.5 4.6,-18.9c-1.8,6.1 -3.6,12.5 -4.6,18.9c-3.3,9.9 -7.9,19.3 -13.6,28c-4,6 -10,12.3 -17.2,11.5c-5.3,-0.6 -9.4,-5 -12.5,-9.3c-10.5,-14.8 -15.8,-33.2 -15.1,-51.3c0.8,-5 1.5,-9.9 2,-14.9c-1.1,4.9 -1.8,9.9 -2,14.9c-3.1,19.3 -8.2,38.4 -15.4,56.6c-1.8,4.6 -4.4,9.8 -9.3,10.7c-5.4,1.1 -10,-3.6 -13.2,-8c-13.6,-18.9 -21,-42.1 -21.4,-65.4c3.6,-11.8 4.7,-24.5 5.3,-36.9c-3.8,11.9 -5.6,24.4 -5.3,36.9c-1.2,4.1 -2.8,8.1 -4.7,12c-7.5,15 -22.1,27.5 -38.8,28c-16.2,0.5 -31.5,-10.9 -37.6,-25.9c-1.3,-3.1 -2.2,-6.3 -2.7,-9.6c5.7,-11.2 7.1,-24.4 7.2,-37.1c-6.5,11.1 -9.4,24.5 -7.2,37.1c-1,2.1 -2.2,4.1 -3.6,5.9c-8.8,12.2 -26.1,19.4 -39.4,12.4c-10.2,-5.4 -15.4,-17.6 -15.4,-29.1c0,-11.5 4.4,-22.6 9.2,-33.1c-8.7,4.6 -14.4,13.2 -21.9,19.6c-7.5,6.4 -19.3,10.1 -26.8,3.7c-9.8,-8.4 -3.1,-24.2 4.1,-34.9c-23.7,7.2 -55.3,11.6 -68,-9.6c-5,-8.4 -5.3,-18.6 -3.7,-28.3l-0.9,-0.2c-20.4,-2.8 -47.9,15.3 -50.9,35.7c-0.6,4.5 -0.6,9.3 -2.9,13.1c-4.1,6.7 -13.2,7.6 -21.1,7.9c-11.9,0.3 -24.3,0.6 -35.3,-4c-11,-4.6 -20.4,-15.4 -19.3,-27.3c-4.9,21.3 -24.5,38.2 -46.2,40.1c-21.7,1.9 -43.9,-11.5 -52.4,-31.6c-4,23.7 -26.1,43.1 -50.1,43.9c-6.1,0.2 -12.1,-0.8 -17.9,-2.8c-16.9,-5.8 -31,-20.2 -35.1,-37.7c-8.9,12.6 -20.8,23 -34.5,30.1c-3.6,1.9 -7.6,3.5 -11.6,3.3c-14.8,-0.8 -16.7,-21.8 -14.1,-36.3c-5.3,5.8 -11,11.8 -18.4,14.6c-7.4,2.8 -17.1,1.2 -21,-5.7c-1.7,-3 -2.2,-6.5 -2.4,-9.9c-1.6,-19.6 1.5,-39.4 8.6,-57.7c-18.9,-0.9 -37.6,-4.4 -53.9,-13.6c-21.9,-12.2 -38.5,-37 -34.5,-61.8c-30.5,6.1 -62.5,12.1 -92.4,3.4c-29.9,-8.7 -56.5,-37.3 -51.8,-68.1c-4.3,16.9 -23.7,24.3 -41.1,24.2c-307,-3.1 -311,-510.9 104.1,-480.7c-218.6,-123.1 -97.1,-322.5 66.4,-279.1c-362.5,-121.2 -183.5,-673.2 186.9,-581.2c-117.4,-372 43.4,-592 461.1,-696c457.9,-114 995.9,61.1 910.9,384c47.1,-304 882.7,-352 730.7,324c201.4,-222.1 596,312 149.2,445.4c531.2,-15.8 618.1,639.7 385.8,844.6c-91.9,81 -169.2,76.6 -169.2,76.6c10.9,30.2 10.7,70.4 -16.6,87.4c-27.5,17.1 -62.8,-0.5 -90.1,-17.8c-2.3,15 0,30.3 0.4,45.6c0.4,15.2 -1.4,31.4 -10.7,43.4c-9.3,12.1 -28,17.8 -40.2,8.8c6.5,25.6 8.1,52.3 4.7,78.5c-1.1,8.8 -3.1,18 -8.9,24.7c-8.6,9.8 -23.1,11.7 -36.1,10.7c-27.6,-2.1 -54.4,-13.9 -74.4,-33c6.9,24.2 -11.7,52.3 -36.7,55.4c-25,3.1 -49.9,-19.6 -49.2,-44.7c-13.4,25.2 -43.8,40.3 -72,35.8c-8,-1.3 -17.1,-6.2 -18.9,-13.3c0,-1.6 0,-3.1 -0.1,-4.6c-0.3,1.6 -0.2,3.2 0.1,4.6c0,8.9 -1,18.5 -4.8,25.8c4.8,5.8 6.9,14.1 5.6,21.6c-1.9,11 -9.6,20.3 -18.8,26.6c-9.2,6.3 -15.7,7.8 -26.1,8.8c-14.6,0.9 -29.1,-9.1 -33.4,-23.1c-1.7,-5.4 -1.7,-11.2 -0.4,-16.7c-22,27.4 -49.9,50.2 -81.2,66.2c-9,4.6 -18.7,8.7 -28.8,9c-10.1,0.3 -21,-4 -26,-12.8c-4.1,-7.2 -3.8,-16 -2.8,-24.2c5.1,-41.2 25.8,-80.2 57.1,-107.4c-29,17.3 -58.4,33.9 -88.1,49.8c-4.6,2.5 -9.5,5 -14.7,4.9c-5.2,0 -10.8,-3.6 -11.2,-8.8c-0.2,-3.2 1.5,-6.2 3.1,-9c10.8,-18.1 22.4,-35.7 34.6,-52.9c-11.9,6.8 -23.7,13.6 -35.6,20.3c-5.9,3.4 -13.8,6.6 -18.9,2.2c-4.4,-3.8 -3.7,-10.8 -2.2,-16.5c4.7,-18.1 12.8,-35.3 23.6,-50.6c-26.7,7.4 -56.6,3 -80,-11.6c-1.2,1.4 -2.6,2.8 -3.9,4c9.3,17.3 13,37.6 10.2,57c-1.3,8.8 -5.1,18.7 -13.6,21c-8.3,2.2 -16.3,-4 -22.3,-10.1c-9.9,-9.4 -18.2,-19.5 -25.4,-30.4c-1.5,-3.7 -3.7,-7.2 -6.5,-10.3c2.1,3.5 4.2,6.9 6.5,10.3z" class="st4"/>
  </g>
  <g id="XMLID_2_">
   <g id="svg_9">
    <path id="svg_10" d="m4608.267725,3747.800027l-6.4,-143.1l-35.1,-153.8l-69.9,-51c0,0 -9.1,-221 -18.7,-407.9c0.4,4.6 1.5,10.9 4.1,15.9c13,-4.8 53.8,-34 59.3,-52.3c-6.1,33.3 4.4,86.7 33.9,101.3c22.1,-31.7 10.2,-83.2 7.8,-92.5c2,6.6 11.5,33.5 38.6,40.5c13.1,-29.8 11.3,-45.9 11.3,-45.9l1,-0.1c8.8,80.2 17.2,190.5 14.7,344.6c-6,368.5 28,410.5 123,452.2c0,0 -58.4,-14.2 -71.2,-24c-0.8,17.2 -4.4,31.2 -4.4,31.2s-42.2,-15 -36.3,-32c-17.1,-3 -22.1,26.8 -22.1,26.8l-29.6,-9.9z" class="st5"/>
    <path id="svg_11" d="m4477.867725,2985.800027c0.1,2.1 0.2,4.1 0.3,6.2c-0.3,-3.7 -0.3,-6.2 -0.3,-6.2z" class="st5"/>
   </g>
   <g id="svg_12"/>
  </g>
  <g id="svg_13">
   <path id="svg_14" d="m4787.767725,2867.400027c1.8,14.8 9,28.9 20.2,38.7c18.8,-15.4 30.1,-39.5 30,-63.8c10.7,12.1 16.3,28.7 15.2,44.8c-0.6,7.9 -2.1,17.3 3.8,22.5c2.5,2.2 5.9,3.1 9.2,3.6c34.5,5.8 70.1,-25.9 68.3,-60.8c12.2,8.9 15,26.7 27,35.9c10.4,8 26.7,6.9 35.9,-2.4c9.2,-9.3 10.1,-25.6 2,-35.9c0,0 28.2,-0.2 26,-23.3c-0.1,-1.5 -0.4,-3.2 -0.9,-4.9" class="st6"/>
   <path id="svg_15" d="m4787.767725,2867.400027c0.2,-4.6 0.2,-9.1 -0.1,-13.7c-0.5,4.6 -0.5,9.2 0.1,13.7z" class="st6"/>
   <path id="svg_16" d="m4619.767725,2905.500027c2.7,4.7 6,9 9.7,12.9c7.3,7.6 16.4,13.4 26.3,16.9c2,0.7 4.3,1.3 6.2,0.2c2.2,-1.2 2.8,-4 3.1,-6.5c2,-16.9 1.2,-34.1 -2.3,-50.8c4.6,18.2 19,33.5 36.9,39.2c7.9,-17.5 9.9,-37.6 5.4,-56.3c5.7,26 19,50.3 37.9,69.1c5.3,5.3 12.6,10.4 19.7,8c5.1,-1.7 8.1,-6.8 10.4,-11.6c8.9,-18.4 13.9,-38.7 14.8,-59.1" class="st6"/>
   <path id="svg_17" d="m4873.567725,2773.900027c-11,24.3 -5.8,55.4 13,74.5c1.8,1.8 3.9,3.6 6.5,3.6c2.1,0 4,-1.2 5.6,-2.4c17,-12.6 27.8,-33.2 28.5,-54.4c1.9,4.6 -0.1,9.7 -0.7,14.6c-1.2,9.7 3.5,19.4 10.3,26.4c6.8,7.1 15.4,11.9 23.9,16.7c5.4,3 12.2,6.1 17.5,2.8c2.4,-1.5 3.9,-4.1 5.2,-6.5c6.2,-11.5 11.4,-23.5 15.3,-36c1.1,-3.3 2,-6.7 2.9,-10.1c1.5,-5.6 2.1,-12.9 -2.9,-15.9" class="st6"/>
   <path id="svg_18" d="m4873.567725,2773.900027c0.8,-1.6 1.6,-3.2 2.4,-4.8c-0.8,1.5 -1.6,3.1 -2.4,4.8z" class="st6"/>
   <path id="svg_19" d="m4803.067725,2753.900027c-1.3,0.1 0,-2.3 1,-1.6c1,0.8 0.7,2.3 0.3,3.5c-7.9,23.3 -6.9,50.6 7.2,70.7c0.9,1.3 2,2.6 3.5,3c1.5,0.3 3.1,-0.4 4.4,-1.1c22.9,-12.4 41.9,-31.6 54.1,-54.6" class="st6"/>
   <path id="svg_20" d="m5097.367725,2735.000027c7.2,10.9 15.5,21 24.6,30.4c6,6.1 14,12.3 22.3,10.1c8.6,-2.3 12.4,-12.2 13.6,-21c2.8,-19.4 -0.8,-39.7 -10.2,-57c-0.2,-0.3 -0.3,-0.6 -0.5,-0.9" class="st6"/>
   <path id="svg_21" d="m5097.367725,2735.000027c-1.5,-3.7 -3.7,-7.2 -6.5,-10.3c2.1,3.5 4.2,6.9 6.5,10.3z" class="st6"/>
   <path id="svg_22" d="m5038.367725,2767.500027c9.5,11.2 20.6,21.1 32.9,29.1c4.9,3.2 10.7,6.2 16.2,4.3c6.9,-2.3 9.2,-10.7 10.5,-17.8c2.9,-15.9 5.4,-33.8 -0.6,-48.1" class="st6"/>
   <path id="svg_23" d="m5038.367725,2767.500027c-1.9,-3 -4.2,-5.9 -6.7,-8.5c2.1,3 4.3,5.8 6.7,8.5z" class="st6"/>
   <path id="svg_24" d="m4994.867725,2795.000027c-0.8,6.2 0.7,12.7 3.9,18.1c2.2,3.6 5.1,6.8 8.7,9.2c5.3,3.5 11.7,5 18,4.5c4.2,-0.3 8.4,-1.5 12.1,-3.7c2.1,-1.2 4.1,-2.8 5.6,-4.8c1.4,-2 2.2,-4.4 2.8,-6.8c3.7,-14.8 0.8,-31.1 -7.4,-44" class="st6"/>
   <path id="svg_25" d="m5423.067725,2834.800027c-1.3,5.5 -1.3,11.3 0.4,16.7c4.3,14 18.8,24 33.4,23.1" class="st6"/>
   <path id="svg_26" d="m5234.867725,2700.900027c-1.1,1.4 -2.1,2.8 -3.1,4.3c-10.8,15.2 -18.8,32.5 -23.6,50.6c-1.5,5.7 -2.2,12.6 2.2,16.5c5.1,4.4 13,1.2 18.9,-2.2c11.9,-6.8 23.7,-13.6 35.6,-20.3c-12.2,17.2 -23.7,34.8 -34.6,52.9c-1.7,2.8 -3.4,5.8 -3.1,9c0.4,5.2 6,8.8 11.2,8.8c5.2,0 10.1,-2.5 14.7,-4.9c29.8,-15.9 59.2,-32.6 88.1,-49.8c-31.2,27.3 -51.9,66.3 -57.1,107.4c-1,8.2 -1.3,17.1 2.8,24.2c5.1,8.8 15.9,13.1 26,12.8c10.1,-0.3 19.8,-4.4 28.8,-9c31.3,-16 59.2,-38.8 81.2,-66.2" class="st6"/>
   <path id="svg_27" d="m5500.967725,2791.800027c1.8,7.1 10.9,12 18.9,13.3c28.2,4.5 58.5,-10.5 72,-35.8c-0.7,25.1 24.2,47.8 49.2,44.7c25,-3.1 43.6,-31.2 36.7,-55.4c20.1,19.1 46.8,31 74.4,33c13,1 27.6,-0.8 36.1,-10.7c5.8,-6.7 7.7,-15.9 8.9,-24.7c3.4,-26.1 1.8,-52.9 -4.7,-78.5c12.2,9 31,3.3 40.2,-8.8c9.3,-12.1 11.1,-28.2 10.7,-43.4c-0.4,-15.2 -2.8,-30.5 -0.4,-45.6c27.4,17.3 62.6,34.9 90.1,17.8c27.3,-16.9 27.5,-57.1 16.6,-87.4c0,0 147.2,14.4 169.2,-76.6" class="st6"/>
   <path id="svg_28" d="m5500.967725,2791.800027c0,-1.6 0,-3.1 -0.1,-4.6c-0.4,1.6 -0.3,3.1 0.1,4.6z" class="st6"/>
   <path id="svg_29" d="m5398.067725,2736.600027c-9.4,22.1 -11.6,47.3 -6.1,70.7c0.7,3.1 1.8,6.5 4.6,8c3.2,1.7 7.1,0.3 10.3,-1.3c19.8,-9.6 37.4,-23.9 50.9,-41.2c-2.9,12.2 -5.7,25 -2.1,36.9c3.5,12 15.9,22.3 27.9,18.9c5.9,-1.7 10,-5.7 12.6,-11c3.7,-7.3 4.8,-16.9 4.8,-25.8" class="st6"/>
   <path id="svg_30" d="m3423.067725,2547.300027c-11,12 -19.6,26.1 -25.4,41.3c-7.1,18.3 -10.1,38.1 -8.6,57.7c0.3,3.4 0.7,6.9 2.4,9.9c3.9,6.8 13.6,8.4 21,5.7c7.4,-2.8 13,-8.8 18.4,-14.6c-2.7,14.6 -0.7,35.5 14.1,36.3c4.1,0.2 8,-1.4 11.6,-3.3c13.7,-7.1 25.7,-17.5 34.5,-30.1c4.2,17.5 18.2,31.9 35.1,37.7c5.7,2 11.8,3 17.9,2.8c24.1,-0.8 46.2,-20.2 50.1,-43.9c8.5,20.1 30.7,33.5 52.4,31.6c21.7,-1.9 41.3,-18.8 46.2,-40.1c-1.1,11.9 8.3,22.7 19.3,27.3c11,4.6 23.4,4.3 35.3,4c7.8,-0.2 17,-1.2 21.1,-7.9c2.4,-3.9 2.3,-8.6 2.9,-13.1c3,-20.4 30.5,-38.6 50.9,-35.7" class="st6"/>
   <path id="svg_31" d="m3691.167725,2724.700027c-1.4,3.9 -0.7,8.9 2,12.2c4.1,5.1 11.1,7.1 17.7,7.5c14.6,1 32.1,-6.9 33.1,-21.5c7.2,8.2 25,20.1 29.5,10.2c17.3,-38.3 101.4,48.1 117.6,-47.1" class="st6"/>
   <path id="svg_32" d="m3691.167725,2724.700027c1.5,-1.6 2.9,-3.2 4.2,-4.9c-2,1 -3.4,2.8 -4.2,4.9z" class="st6"/>
   <path id="svg_33" d="m3526.367725,2687.900027l0,0c0.5,9.9 4.7,53.7 19.5,71.1c6.5,7.5 18,10.9 27.7,12.8c14.9,3.1 28.7,-9.3 35.7,-22.8c7,-13.5 10.1,-29 18.9,-41.3c-1.5,13 -1.5,29.2 9.8,35.8c6.5,3.7 14.6,2.8 21.7,0.6c11.9,-3.6 22.9,-10.4 31.5,-19.5" class="st6"/>
   <path id="svg_34" d="m4405.067725,2771.700027c-3.8,17.6 6.2,37.7 23.1,44.3c12.7,5 27.8,1.7 38.4,-6.8c5.1,-4.1 9.1,-9.3 11.3,-15.4" class="st6"/>
   <path id="svg_35" d="m4405.167725,2771.700027c0.6,-1.9 1.2,-3.8 1.8,-5.7c-0.8,1.8 -1.4,3.7 -1.8,5.7z" class="st6"/>
   <path id="svg_36" d="m4405.167725,2771.700027c0,0 0,0 0,0" class="st6"/>
   <path id="svg_37" d="m4360.767725,2811.200027c2.1,9.7 13.5,17.8 21.8,12.5c2.6,-1.6 4.4,-4.2 5.8,-7c0.7,-1.4 1.3,-2.8 1.9,-4.1c5.6,-13.4 10.6,-27 14.9,-40.8" class="st6"/>
   <path id="svg_38" d="m4360.767725,2811.200027c4.9,-9 7.1,-19.7 9,-29.9c-5.2,8.9 -10.6,18.6 -9.2,28.8c0,0.3 0.1,0.7 0.2,1.1z" class="st6"/>
   <path id="svg_39" d="m4311.067725,2774.500027c-0.7,10.4 -0.4,21 0.9,31.4c0.7,5.4 1.7,11 4.9,15.4c8.3,11.5 27.4,9 37.3,-1.1c2.6,-2.7 4.8,-5.7 6.5,-9" class="st6"/>
   <path id="svg_40" d="m4311.067725,2774.500027c3.6,-4.5 5,-10.4 1.7,-15.2c-0.8,5 -1.4,10.1 -1.7,15.2z" class="st6"/>
   <path id="svg_41" d="m4190.467725,2729.400027c-1.1,7.4 -0.9,14.8 1.8,21.8c5.1,12.9 23.5,20.9 33.2,11c3.8,-3.9 5.3,-9.4 6.6,-14.7c3.7,-15.1 6.6,-30.4 8.9,-45.8c5.2,21.8 14.7,42.6 27.9,60.7c6.8,9.3 15.8,18.6 27.3,19.3c5.7,0.3 11.4,-2.8 14.9,-7.1" class="st6"/>
   <path id="svg_42" d="m4190.467725,2729.400027c2.1,-6.2 3.6,-12.5 4.6,-18.9c-1.9,6.1 -3.7,12.5 -4.6,18.9z" class="st6"/>
   <path id="svg_43" d="m4132.067725,2708.100027c-0.7,18.1 4.6,36.5 15.1,51.3c3.1,4.4 7.2,8.7 12.5,9.3c7.2,0.8 13.1,-5.4 17.2,-11.5c5.8,-8.7 10.4,-18.1 13.6,-28" class="st6"/>
   <path id="svg_44" d="m4132.067725,2708.100027c0.8,-5 1.5,-9.9 2,-14.9c-1.1,4.9 -1.8,9.9 -2,14.9z" class="st6"/>
   <path id="svg_45" d="m4072.767725,2702.100027c0.5,23.3 7.8,46.4 21.4,65.4c3.2,4.4 7.9,9.1 13.2,8c4.8,-1 7.5,-6.1 9.3,-10.7c7.1,-18.3 12.3,-37.3 15.4,-56.6" class="st6"/>
   <path id="svg_46" d="m4072.767725,2702.100027c3.6,-11.8 4.7,-24.5 5.3,-36.9c-3.8,11.9 -5.5,24.4 -5.3,36.9z" class="st6"/>
   <path id="svg_47" d="m3988.867725,2706.500027c0.6,3.3 1.5,6.5 2.7,9.6c6.1,15 21.4,26.4 37.6,25.9c16.8,-0.5 31.3,-13 38.8,-28c1.9,-3.9 3.5,-7.9 4.7,-12" class="st6"/>
   <path id="svg_48" d="m3988.867725,2706.500027c5.7,-11.2 7.1,-24.4 7.2,-37.1c-6.4,11.1 -9.3,24.5 -7.2,37.1z" class="st6"/>
   <path id="svg_49" d="m3858.367725,2550.400027c-0.7,0.6 -1.4,1.3 -2.1,1.9c-15.8,15 -27.1,34.7 -31.9,56c-0.4,1.6 -0.7,3.2 -1,4.8c-1.6,9.7 -1.3,20 3.7,28.3c12.7,21.3 44.3,16.8 68,9.6c-7.2,10.7 -13.9,26.6 -4.1,34.9c7.5,6.4 19.3,2.6 26.8,-3.7c7.5,-6.4 13.2,-15 21.9,-19.6c-4.8,10.5 -9.2,21.5 -9.2,33.1c0,11.5 5.2,23.7 15.4,29.1c13.3,7 30.7,-0.1 39.4,-12.4c1.4,-1.9 2.6,-3.9 3.6,-5.9" class="st6"/>
   <path id="svg_50" d="m4327.267725,2633.000027c0.2,11.1 0.4,22.5 3.7,33.1c3.4,10.6 10.4,20.6 20.8,24.8c7.7,3.1 16.6,2.7 24.6,0.5c12.8,-3.6 24.2,-11.9 31.8,-22.8c3.9,-5.5 6.9,-11.7 8.6,-18.3" class="st6"/>
   <path id="svg_51" d="m4388.967725,2631.000027c-4.7,2.3 -3.8,9.3 -1.5,14c4.7,9.6 12,17.7 20.8,23.6c7.9,5.3 17.1,9 26.5,10.5c9.3,1.5 19,1 28,-1.9c19.1,-6.1 33.9,-22.5 40.1,-41.4c0.1,-0.1 0.1,-0.3 0.1,-0.4c2.9,-9.1 3.8,-18.9 2.1,-28.4c1.8,10.2 3.9,21 10.6,28.9c6.7,7.9 19.8,11.4 27.6,4.6c8.8,-7.8 5.5,-22.2 9.7,-33.3c20.9,10.4 47.2,13.9 67.1,1.7c14.7,-9 23.7,-25.4 27.6,-42.3c3.9,-16.8 3.2,-34.3 2.5,-51.6" class="st6"/>
   <path id="svg_52" d="m4754.667725,2611.000027c-3.1,9.1 -1.3,20.5 4.4,28.9c2.6,3.9 6.1,7.1 10.3,9.2c18.5,9.5 42.4,0.2 55.3,-16.1c-6.4,8.8 -3.3,22 4.7,29.4c7.9,7.4 19.3,9.9 30.2,10.1c30.6,0.5 60.9,-16.8 76,-43.4c-3.1,24.5 24.1,42.5 48.6,45.3c41.4,4.8 84.8,-17 105.7,-53.1" class="st6"/>
   <path id="svg_53" d="m4754.667725,2611.000027c4.1,-3.5 7.6,-7.7 10.3,-12.5c-5.1,2.8 -8.5,7.3 -10.3,12.5z" class="st6"/>
   <path id="svg_54" d="m4682.967725,2538.800027c-10.3,11 -14.3,26.8 -12.3,41.7c1.8,13.6 8.4,26.5 19.5,34.6c18.9,13.8 47.1,10.9 64.5,-4.1" class="st6"/>
   <path id="svg_55" d="m4195.767725,2567.600027c5,15 23.5,24.7 40.3,26.3c18.8,1.8 38.8,-2.8 52.8,-15.5c14,-12.7 20.6,-34.1 13,-51.5c18.2,24.9 55.3,33.7 82.7,19.5" class="st6"/>
   <path id="svg_56" d="m4195.767725,2567.600027c0,-3 -0.4,-6 -1.3,-9c-0.1,3.2 0.4,6.2 1.3,9z" class="st6"/>
   <path id="svg_57" d="m4001.967725,2572.400027c-2,9 0.8,19.5 7.7,26c10.9,10.1 28.4,10.5 41.6,3.9c13.3,-6.6 22.9,-19 29.6,-32.2c-4.5,22.2 21.2,38.7 43.7,41.8c17.3,2.4 35.8,0.9 50.6,-8.5c12.1,-7.7 20.7,-21.8 20.7,-35.8" class="st6"/>
   <path id="svg_58" d="m4001.967725,2572.400027c3.1,-4.1 5.8,-8.4 8.2,-12.9c-4.4,3.1 -7.1,7.8 -8.2,12.9z" class="st6"/>
   <path id="svg_59" d="m3861.967725,2485.700027c-2.1,8.5 -3.7,17.1 -5,25.8c-0.5,3.8 -1,7.5 -1.3,11.3c-0.9,9.8 -0.9,19.8 0.7,29.4c1.2,7.4 3.3,14.7 6.7,21.5c13.5,27.2 46.4,42 76.5,37.8c25,-3.5 47.4,-18.7 62.5,-39.1" class="st6"/>
   <path id="svg_60" d="m3756.867725,2460.500027c-5,22.8 12.4,45.8 33.9,55.1c20.1,8.7 42.8,8.4 64.9,7.3c1.4,-0.1 2.9,-0.1 4.3,-0.2" class="st6"/>
   <path id="svg_61" d="m5092.667725,2432.800027c0,0.3 0,0.7 0,1c0.1,41.7 44.6,73 86.5,72.7c42.2,-0.3 80.6,-23.7 114.5,-49c-11,10.1 -4.6,30.5 9,36.8c13.5,6.3 29.8,1.9 42.5,-5.9c12.7,-7.8 23.3,-18.7 35.8,-26.8c4.4,22.6 31.8,31.4 54.8,33.6c34.4,3.3 69.4,1.4 103.3,-5.5" class="st6"/>
   <path id="svg_62" d="m5135.267725,2680.500027c5,5 10.5,9.4 16.4,13c23.5,14.6 53.4,19 80,11.6c6.1,-1.7 12.1,-4 17.8,-7" class="st6"/>
   <path id="svg_63" d="m5134.767725,2706.600027c4.7,-2.4 9.1,-5.5 13,-9.1c1.4,-1.3 2.7,-2.6 3.9,-4c2.9,-3.2 5.3,-6.8 7.4,-10.5" class="st6"/>
   <path id="svg_64" d="m5456.867725,2874.600027c10.4,-1.1 16.9,-2.5 26.1,-8.8c9.2,-6.3 16.9,-15.6 18.8,-26.6c1.3,-7.6 -0.8,-15.8 -5.6,-21.6c-2.2,-2.7 -4.9,-4.8 -8.1,-6.1" class="st6"/>
   <path id="svg_65" d="m3416.867725,2588.800027c-6.4,0.1 -12.8,0.1 -19.2,-0.2c-18.9,-0.9 -37.6,-4.4 -53.9,-13.6c-21.9,-12.2 -38.5,-37 -34.5,-61.8c-30.5,6.1 -62.5,12.1 -92.4,3.4c-29.9,-8.7 -56.5,-37.3 -51.8,-68.1c-4.3,16.9 -24.3,19.4 -41.1,24.2c-44.6,12.6 -83,-52.9 -13,-90.9" class="st6"/>
   <path id="svg_66" d="m4503.467725,2635.500027c18.3,37.8 33.3,73.7 37.8,95.4c20.7,-43.9 48.1,-102.4 128.9,-150.3" class="st6"/>
   <path id="svg_67" d="m4434.767725,2679.100027c14.2,37.9 25.7,81.3 31.9,130.1c1.6,12.5 2.8,25.4 3.6,38.6c1.2,19.9 2.5,41.8 3.8,64.9" class="st6"/>
   <path id="svg_68" d="m4582.967725,2963.300027c0,0.1 0.1,0.3 0.2,0.5" class="st6"/>
   <path id="svg_69" d="m4582.867725,2963.000027c0,0 0,0.1 0,0.1" class="st6"/>
   <path id="svg_70" d="m4582.867725,2962.900027c0,0 0,0 0,0c0,0 0,0 0,0" class="st6"/>
   <path id="svg_71" d="m4582.967725,2963.200027c0,0 0,-0.1 0,-0.1c0,-0.1 0,-0.1 0,-0.1c0,0 0,0 0,-0.1" class="st6"/>
   <path id="svg_72" d="m4582.967725,2963.200027c0,0 0,0.1 0,0" class="st6"/>
   <path id="svg_73" d="m4583.167725,2964.000027c0,-0.1 0,-0.2 -0.1,-0.2c-0.1,-0.2 -0.1,-0.4 -0.2,-0.5" class="st6"/>
   <path id="svg_74" d="m4583.167725,2964.000027c0,0.1 0,0.2 0.1,0.3c0,0 0,0.1 0,0.1" class="st6"/>
   <path id="svg_75" d="m4541.567725,2955.600027c0.3,-0.9 0.4,-1.8 0.5,-2.7c-0.2,0.9 -0.3,1.8 -0.5,2.7z" class="st6"/>
   <path id="svg_76" d="m4389.667725,2803.900027c-0.7,4.4 -1.2,8.7 -1.4,12.8c-1.6,33.7 13.8,55.4 21.7,65.2c15.8,-7 32.8,-39 32.8,-39s-14,62 12,89c18.6,-7.5 19.1,-17.8 19.1,-18.9c0,-0.1 0,-0.1 0,-0.1" class="st6"/>
  </g>
  <g id="svg_77">
   <path id="svg_78" d="m4535.467725,3422.500027c16.1,-4.3 33.4,5.3 43,18.9s13.1,30.6 16,47c3.7,20.9 6.3,41.9 9.4,62.9c6.4,44.6 47.9,221.3 -42.1,255.2c45.5,-65.6 50,-80.9 19.9,-218.1c-26.2,-119.8 -19.2,-105.8 -32.9,-124c-13.6,-18.3 -13.3,-41.9 -13.3,-41.9z" class="st3"/>
  </g>
  <path id="svg_79" d="m4559.767725,3303.600027c3.3,20.3 0.4,43.1 -13.8,58c-12.6,13.3 -31.7,18.1 -49.9,20.3c-1,-24.5 -3,-70.6 -5.5,-127.5c18.6,-6.7 41.2,-1 54.3,14c8.5,9.7 12.9,22.4 14.9,35.2z" class="st3"/>
  <g id="svg_80">
   <path id="svg_81" d="m4582.967725,2963.200027c0,-0.1 -0.1,-0.2 -0.1,-0.3c0,0.1 0.1,0.2 0.1,0.3zm0,0.1c0.1,0.2 0.1,0.4 0.2,0.8c-0.1,-0.4 -0.1,-0.6 -0.2,-0.8zm-116.4,-154.1c-6.1,-48.8 -17.7,-92.2 -31.9,-130.1c9.3,1.5 19,1 28,-1.9c19.1,-6.1 33.9,-22.5 40.1,-41.4c0.1,-0.1 0.1,-0.3 0.1,-0.4l0.5,0.1c18.3,37.8 33.3,73.7 37.8,95.4c20.7,-43.9 48.1,-102.4 128.9,-150.3l0.5,-0.1c1.8,13.6 8.4,26.5 19.5,34.6c18.9,13.8 47.1,10.9 64.5,-4.1c-3.1,9.1 -1.3,20.5 4.4,28.9c-1.2,0.4 -92.7,30.4 -135.2,121.9c-12.9,27.8 -4.8,71.8 5.6,156.5c1.5,12.6 3.1,26 4.7,40.4l-1,0.1c0,0 1.8,16.1 -11.3,45.9c-27.1,-7 -36.6,-33.9 -38.6,-40.5c2.4,9.3 14.3,60.8 -7.8,92.5c-29.6,-14.6 -40.1,-68 -33.9,-101.3c0.3,-0.9 0.4,-1.8 0.5,-2.7c-0.2,0.9 -0.4,1.8 -0.5,2.7c-5.4,18.3 -46.3,47.5 -59.3,52.3c-2.6,-5 -3.6,-11.3 -4.1,-15.9c-1.4,-27.3 -2.8,-54 -4.2,-79c0,-0.1 0,-0.1 0,-0.1c-1.3,-23.2 -2.6,-45 -3.8,-64.9c-0.7,-13.1 -1.9,-26 -3.5,-38.6z" class="st3"/>
  </g>
  <path id="svg_82" d="m3980.367725,3547.800027l75.5,47.8c-14.9,31.9 -43.6,32.3 -51.7,26.8c-8,-5.5 -9,-6.3 -31.4,-22.3c-22.4,-16.1 -11,-38.9 0,-55.9l7.6,3.6z" class="st7"/>
  <path id="svg_83" d="m4133.667725,3772.700027c-0.6,6.2 -0.8,12.3 -0.8,18.3l0,0l-32,-4.7c-10.2,-1 -17.3,-14.9 -15.7,-31.1c1.6,-16.2 11.1,-28.4 21.4,-27.5l36.2,5.1c-4.6,12.1 -7.7,25.6 -9.1,39.9z" class="st8"/>
  <path id="svg_84" d="m4106.467725,3727.700027l36.2,5.1c4.5,-12.1 10.3,-22.8 17.1,-31.6c-2,-5.8 -4.4,-11.2 -7.1,-16.2c-10.1,-18.6 -25,-30.8 -42.4,-32.5l-63.8,-10.5c-36.5,-3.5 -70.6,40.3 -76.1,97.9c-5.6,57.6 19.5,107.1 56,110.6l58.3,9.6l5.5,0.9c18.4,1.8 36.1,-8.4 49.9,-26.4c-4.4,-13 -6.9,-27.5 -7.1,-43.5l0,0l-32,-4.7c-10.2,-1 -17.3,-14.9 -15.7,-31.1c1.4,-16.2 11,-28.5 21.2,-27.6z" class="st1"/>
  <path id="svg_85" d="m4269.167725,3756.700027c18.3,-0.1 21.9,15.9 20.8,33.8c-1.2,19.8 -10.8,32.9 -27,30.6c-11.2,-1.6 -19,-16.4 -17.3,-34.2c1.7,-17.8 12.2,-30.2 23.5,-30.2z" class="st9"/>
  <path id="svg_86" d="m4276.167725,3684.100027l-66,-9.8c-18.6,-1.8 -36.5,8.6 -50.4,26.8c-6.8,8.9 -12.6,19.6 -17.1,31.6c-4.5,12.1 -7.6,25.6 -9,39.9c-0.6,6.2 -0.8,12.3 -0.8,18.3c0.2,15.8 2.8,30.6 7.1,43.6c9.5,27.8 27.5,47.1 49.9,49.3l66,9.8c31.2,3 60.6,-28.4 72.1,-73.4c2,-7.9 3.5,-16.2 4.3,-24.9c5.8,-57.9 -19.4,-107.6 -56.1,-111.2z" class="st7"/>
  <path id="svg_87" d="m4396.967725,3776.600027c3,0.1 5.9,0.2 8.7,0.4c-4.9,3.4 -10,6.8 -15.1,10.1c0.2,-0.2 3.3,-3.4 6.4,-10.5z" class="st1"/>
  <path id="svg_88" d="m4396.967725,3776.600027c-3.1,7.1 -6.2,10.3 -6.4,10.5c0,0 0,0 0,0c-13.5,8.6 -27.7,16.6 -42.6,23.9c4.3,-16.8 13.8,-32.9 34.5,-34.2c4.9,-0.2 9.8,-0.3 14.5,-0.2z" class="st1"/>
  <path id="svg_89" d="m4482.867725,3804.900027c8.1,7.7 16.4,20 16.5,39.7c0,7.7 -1.2,16.6 -4.2,26.7c-15.6,52 -57.8,42.7 -64.8,40.9s-46.2,-10.3 -50,-11.1c-3.8,-0.8 -27.6,-7 -34.7,-37.9c20.1,6 74.6,17.1 74.6,17.1l14.1,-6.8c0,0 -1.3,30.4 25.1,25.6c26.4,-4.8 32.4,-84.7 3.5,-78.1c-28.9,6.6 -27.4,39.9 -27.4,39.9l-15.8,6.1l-74.8,-16.6c0,0 -2,-20.2 2.9,-39.4c14.9,-7.3 29.2,-15.3 42.6,-23.9c0,0 0,0 0,0c5.1,-3.3 10.2,-6.6 15.1,-10.1c33,2.5 57.5,13.9 64.6,18.4c2.7,1.8 7.6,4.7 12.7,9.5z" class="st1"/>
  <path id="svg_90" d="m4499.367725,3795.700027c17.1,-3.2 40.2,8.9 23.9,37.9c-7.7,4.4 -17.3,8.4 -23.9,11l0,0c-0.1,-19.6 -8.5,-32 -16.5,-39.7c5.9,-3.1 11.4,-6.2 16.5,-9.2z" class="st1"/>
  <path id="svg_91" d="m4527.567725,3776.500027c12.1,-4.7 40.7,2.6 35.3,25l0,0c-9.6,9.9 -21.3,19.8 -35.7,29.6c-1.2,0.8 -2.6,1.6 -3.9,2.4c16.3,-28.9 -6.8,-41.1 -23.9,-37.9c11,-6.4 20.4,-12.6 28.2,-19.1z" class="st1"/>
  <path id="svg_92" d="m4546.767725,3755.200027c12.9,-7.5 41.6,-4.3 39.8,14.9l0,0c-5.8,10.4 -13.5,20.9 -23.8,31.4c5.4,-22.5 -23.2,-29.7 -35.3,-25c8.1,-6.6 14.5,-13.5 19.3,-21.3z" class="st1"/>
  <path id="svg_93" d="m4593.767725,3755.100027c-1.9,5 -4.3,10 -7.1,15.1c1.8,-19.3 -26.9,-22.4 -39.8,-14.9c5.5,-8.9 9.1,-18.8 10.6,-30.6c3.8,-4.5 40.1,-18.6 43.9,-2l0,0c-1,10.4 -3.3,21.3 -7.6,32.4z" class="st1"/>
  <path id="svg_94" d="m4557.167725,3687.800027c14.3,0.2 41.9,-1 41.2,-11.9l0,0c2.6,14.3 4.5,30.1 3,46.8l0,0c-3.8,-16.6 -40.2,-2.5 -43.9,2c1.4,-10.7 1.3,-22.8 -0.3,-36.9z" class="st1"/>
  <path id="svg_95" d="m4598.367725,3675.800027c0.8,10.9 -26.9,12.1 -41.2,11.9c-1.2,-11 -3.3,-23.2 -6.2,-36.9l0.4,-0.1c13.4,4.8 41.3,-2.4 40,-10.8c0.2,1.1 0.4,2.2 0.5,3.2c1.7,9.8 4.4,20.8 6.5,32.7l0,0z" class="st1"/>
  <path id="svg_96" d="m4591.367725,3640.000027c1.4,8.4 -26.6,15.6 -40,10.8l-0.4,0.1c-0.8,-4 -1.8,-8.1 -2.8,-12.3c-2.5,-10.6 -4.8,-20.8 -7,-30.6c10.7,6.9 44.2,2.7 43.3,-9.7c3,16.9 5.2,31.6 6.9,41.7z" class="st1"/>
  <path id="svg_97" d="m4584.567725,3598.200027c0.9,12.4 -32.6,16.7 -43.3,9.7c-0.7,-3.2 -1.4,-6.3 -2.1,-9.4c2.7,-9.3 4.9,-18.7 6.6,-28.2c14.3,-0.8 30.5,-9.6 29.8,-19.7c3.4,16.5 6.4,32.9 9,47.6c0,0 0,0 0,0z" class="st1"/>
  <path id="svg_98" d="m4532.267725,3568.000027c3.7,1.9 8.5,2.6 13.4,2.3c-1.7,9.5 -3.9,18.9 -6.6,28.2c-2.3,-10.7 -4.6,-20.9 -6.8,-30.5z" class="st1"/>
  <path id="svg_99" d="m4575.467725,3550.600027c0.7,10.1 -15.4,18.9 -29.8,19.7c1.6,-9.2 2.8,-18.4 3.5,-27.8c0.6,-7.5 1,-14.7 1.4,-21.5c8.7,-3.3 15.1,-8.3 14.6,-12.3c3.8,13.4 7.3,27.7 10.3,41.9c0,0 0,0 0,0z" class="st1"/>
  <path id="svg_100" d="m4550.567725,3521.000027c-0.4,6.8 -0.8,14 -1.4,21.5c-0.7,9.3 -1.9,18.6 -3.5,27.8c-4.9,0.3 -9.7,-0.4 -13.4,-2.3c-3.9,-17.2 -7.5,-32.5 -11.1,-45.7c8.4,3.7 20.2,2.2 29.4,-1.3z" class="st1"/>
  <path id="svg_101" d="m4565.167725,3508.700027c0.6,4 -5.9,9 -14.6,12.3c0.7,-13.2 0.9,-25.2 0.7,-35.9c2.7,-3 3.9,-6.1 2.8,-8.8c4,9.8 7.7,20.8 11.1,32.4z" class="st1"/>
  <path id="svg_102" d="m4551.267725,3485.200027c0.2,10.7 0,22.6 -0.7,35.9c-9.2,3.5 -21,5 -29.4,1.3c-2.3,-8.6 -4.7,-16.2 -7.1,-22.8c4.3,-0.1 8.4,-1.4 12.1,-3.6c10.7,-0.8 20.3,-5.6 25.1,-10.8z" class="st1"/>
  <path id="svg_103" d="m4512.167725,3494.400027c4.7,1.5 9.5,1.9 14.1,1.6c-3.7,2.2 -7.8,3.5 -12.1,3.6c-0.7,-1.9 -1.3,-3.6 -2,-5.2l0,0z" class="st9"/>
  <path id="svg_104" d="m4513.367725,3418.800027c16.7,0 30.3,17 31.1,38.3c-7.8,-12.7 -16.6,-20 -26.6,-18.9c-28.7,3.3 -23,30.5 -16.7,37.1c4,4.2 7.6,10.6 11,19c0.7,1.6 1.3,3.4 2,5.1c-0.2,0 -0.5,0 -0.7,0c-17.2,0 -31.1,-18.1 -31.1,-40.4s13.9,-40.2 31,-40.2z" class="st8"/>
  <path id="svg_105" d="m4374.567725,3443.000027c1.1,11 4.4,22.1 8.1,31c-7.7,2.1 -14.9,3.6 -21.7,4.5l0,0c20.6,-6.2 9.1,-33.1 -4.2,-31.9c5.4,-0.7 11.3,-2 17.8,-3.6z" class="st1"/>
  <path id="svg_106" d="m4380.867725,3441.500027c20,-4.4 24.2,24.7 7.2,31.1c0,0 0,0 0,0c-1.8,0.6 -3.6,1.1 -5.4,1.6c-3.7,-8.9 -7,-20 -8.1,-31c2,-0.7 4.1,-1.2 6.3,-1.7z" class="st1"/>
  <path id="svg_107" d="m4356.767725,3446.700027c13.3,-1.2 24.8,25.7 4.2,31.9l0,0c-5.8,0.8 -11.2,1.1 -16.4,1.1c-1.7,-11.9 -2.9,-22.5 -3.3,-31.9c4.5,0.2 9.4,-0.2 14.6,-1c0,0 0,0 0.1,0c0.2,0 0.5,-0.1 0.7,-0.1c0,0 0,0 0.1,0z" class="st1"/>
  <path id="svg_108" d="m4341.267725,3447.800027c0.4,9.4 1.6,20 3.3,31.9c-11.6,-0.1 -21.7,-2 -30.6,-5.6c22.1,7.8 28,-23.2 16.5,-27.9c3.4,1 7,1.5 10.8,1.6z" class="st1"/>
  <path id="svg_109" d="m4330.367725,3446.200027c11.5,4.7 5.6,35.7 -16.5,27.9c-13.5,-5.4 -24.4,-14.4 -33.5,-25.8c7.6,8.5 35.8,-5 26.5,-18.7c7.5,9 15,14.2 23.5,16.6z" class="st1"/>
  <path id="svg_110" d="m4306.967725,3429.500027c9.2,13.7 -19,27.2 -26.5,18.7c-5.9,-7.3 -11.1,-15.7 -15.8,-24.6c14.2,8.9 35.2,-3.1 30.3,-12.8c4,7.6 8,13.8 12,18.7c0,0 0,0 0,0z" class="st1"/>
  <path id="svg_111" d="m4294.967725,3410.800027c4.9,9.7 -16,21.7 -30.3,12.8c-2.6,-4.8 -5,-9.9 -7.4,-15.1l29.2,-15.2c2.9,6.6 5.7,12.4 8.5,17.5z" class="st1"/>
  <path id="svg_112" d="m4414.867725,3395.200027l0,0c-35.2,1.2 -42.7,24.4 -40.4,47.9c-6.4,1.6 -12.3,2.8 -17.8,3.7c-0.1,0 -0.1,0 -0.1,0c-0.2,0 -0.5,0.1 -0.7,0.1c0,0 0,0 -0.1,0c-5.2,0.8 -10.1,1.1 -14.6,1c-1.3,-31.4 6.7,-48.9 37,-51.2c11.2,-1 23.8,-1.5 36.7,-1.5z" class="st10"/>
  <path id="svg_113" d="m4496.867725,3400.300027c2,0.2 4,0.4 5.9,0.7c15.9,2.5 27.4,8.9 35.2,21c6.8,10.6 10.8,25.6 12.5,46.1c-1.9,-4.1 -3.9,-7.8 -6,-11.1c-0.8,-21.3 -14.4,-38.3 -31.1,-38.3c-17.2,0 -31.1,18.1 -31.1,40.4s13.9,40.4 31.1,40.4c0.2,0 0.5,0 0.7,0c2.4,6.6 4.8,14.2 7.1,22.8c3.6,13.2 7.2,28.5 11.1,45.7c2.2,9.6 4.4,19.8 6.8,30.5c-19.8,68.7 -66.2,131.4 -133.5,178.5c-2.8,-0.2 -5.8,-0.4 -8.7,-0.4c3.2,-7.2 6.3,-18.2 6.6,-34c1.2,-73 -4.9,-92.3 -161.9,-87.5l0,0c109.9,-33.5 111.7,-120 105.3,-160.1c-0.9,-5.3 -1.6,-10.3 -2.3,-15.2c5.2,0 10.6,-0.3 16.4,-1.1c6.8,-0.9 14,-2.4 21.7,-4.5c1.8,4.5 3.8,8.4 5.6,11.5c13.7,0 57,2.3 57,2.3s-29.7,-86 33.3,-88c6.6,-0.3 12.7,-0.2 18.3,0.3zm-12.3,223.9c0,0 2.7,-4 3.7,-6.7c-4.7,-30 -31,-25.7 -31,-25.7l-5,9.7c22.9,-3.3 32.3,22.7 32.3,22.7zm-12,33c2.7,-29.3 -29.7,-33 -29.7,-33l-5.6,6.7c30.1,3.3 29.6,34.7 29.6,34.7s2,-1.7 5.7,-8.4zm-32.4,27.7c6,-29.7 -17.3,-36.7 -17.3,-36.7l-8,6.1c21.3,1.1 18.7,36.9 18.7,36.9s3.6,-3.6 6.6,-6.3zm-10.1,-125.3c4,-24.7 -5.6,-46.9 -21.6,-49.5c-16,-2.6 -32.2,15.3 -36.2,40c-4,24.7 5.6,46.9 21.6,49.5c16,2.6 32.2,-15.3 36.2,-40z" class="st10"/>
  <g id="svg_114">
   <ellipse id="svg_115" ry="29.3" rx="45.3" cy="5146.502726" cx="2980.055777" class="st11" transform="matrix(0.1609,-0.987,0.987,0.1609,-1157.6306,5668.1929) "/>
   <g id="svg_116">
    <path id="svg_117" d="m4427.267725,3558.800027c-2.4,13.8 -9,30.5 -22.9,36.5c-13.3,5.7 -23.7,-5.5 -27.4,-17.3c-4.8,-15.2 -2.6,-33.1 5,-47c5.7,-10.5 17.8,-22.7 30.7,-16.5c15.1,7.4 16.7,29.9 14.6,44.3c-0.6,3.8 5.2,5.4 5.8,1.6c2.5,-16.4 0.7,-37.7 -13.6,-48.6c-12.9,-9.9 -28.6,-3 -37.7,8.5c-11.6,14.7 -15.7,35.7 -12,53.9c2.9,14.2 13,30.2 29.5,28.6c20,-2 30.7,-25.1 33.8,-42.4c0.6,-3.8 -5.2,-5.4 -5.8,-1.6z" class="st12"/>
   </g>
  </g>
  <path id="svg_118" d="m4388.067725,3472.500027c17,-6.4 12.9,-35.5 -7.2,-31.1c-2.2,0.6 -4.3,1.1 -6.3,1.6c-2.4,-23.5 5.2,-46.7 40.4,-47.8l0,-0.1c32.1,-0.2 65.7,1.7 82,4.6c0,0.2 0,0.4 0,0.6c-5.6,-0.5 -11.7,-0.7 -18.3,-0.4c-63,2 -33.3,88 -33.3,88s-43.3,-2.3 -57,-2.3c-1.8,-3.1 -3.7,-7 -5.6,-11.5c1.6,-0.5 3.4,-1 5.3,-1.6c-0.1,0 0,0 0,0z" class="st8"/>
  <path id="svg_119" d="m4241.567725,3655.000027c157.1,-4.8 163.2,14.5 161.9,87.5c-0.3,15.8 -3.5,26.9 -6.6,34c-4.7,-0.1 -9.6,0 -14.5,0.3c-20.7,1.3 -30.2,17.4 -34.5,34.2c-6.5,3.2 -13.1,6.2 -19.8,9.1c2,-7.9 3.5,-16.2 4.3,-24.9c5.6,-57.8 -19.6,-107.6 -56.2,-111.1l-66,-9.8c-18.5,-1.8 -36.5,8.6 -50.4,26.8c-2,-5.8 -4.4,-11.2 -7.1,-16.2c0,0 9.5,-16.1 37.2,-19.4c19.5,-2.3 36.6,-5.9 51.7,-10.5l0,0z" class="st8"/>
  <g id="svg_120">
   <path id="svg_121" d="m4488.167725,3617.600027c-1,2.7 -3.7,6.7 -3.7,6.7s-9.3,-26 -32.3,-22.7l5,-9.7c0,0 26.4,-4.3 31,25.7z" class="st13"/>
   <path id="svg_122" d="m4442.867725,3624.200027c0,0 32.3,3.7 29.7,33c-3.7,6.7 -5.7,8.3 -5.7,8.3s0.5,-31.3 -29.6,-34.7l5.6,-6.6z" class="st13"/>
   <path id="svg_123" d="m4422.867725,3648.200027c0,0 23.3,7 17.3,36.7c-3,2.7 -6.7,6.3 -6.7,6.3s2.7,-35.8 -18.7,-36.9l8.1,-6.1z" class="st13"/>
  </g>
  <g id="svg_124">
   <path id="svg_125" d="m4257.267725,3408.600027c24.7,53.6 57.7,93 149,57.6c6.7,-3 8.7,0.7 8.7,0.7" class="st14"/>
   <path id="svg_126" d="m4286.467725,3393.400027c29.5,66.5 50.8,59.5 109.4,44.2c4,-1.3 5.3,-5.7 5.3,-5.7" class="st14"/>
   <path id="svg_127" d="m4264.667725,3423.700027c14.2,8.9 35.2,-3.1 30.3,-12.8" class="st14"/>
   <path id="svg_128" d="m4280.467725,3448.300027c7.6,8.5 35.8,-5 26.5,-18.7" class="st14"/>
   <path id="svg_129" d="m4313.967725,3474.100027c22.1,7.8 28,-23.2 16.5,-27.9" class="st14"/>
   <path id="svg_130" d="m4355.867725,3446.800027c13.6,-2.6 26.2,25.4 5.1,31.7" class="st14"/>
   <path id="svg_131" d="m4380.667725,3441.500027c20.2,-4.6 24.4,24.7 7.3,31" class="st14"/>
  </g>
  <path id="svg_132" d="m4299.967725,3792.100027c2.9,-29.5 -10,-54.9 -28.7,-56.7c-18.7,-1.8 -36.2,20.7 -39,50.2c-2.8,29.5 10,54.9 28.7,56.7c18.6,1.8 36.1,-20.7 39,-50.2z" class="st8"/>
  <g id="svg_133">
   <path id="svg_134" d="m4289.967725,3790.400027c-1.3,19.8 -10.8,32.9 -27,30.6c-11.2,-1.6 -19,-16.4 -17.3,-34.2s12.2,-30.2 23.5,-30.2c18.3,0 22,16 20.8,33.8z" class="st1"/>
  </g>
  <g id="svg_135">
   <g id="svg_136">
    <g id="svg_137">
     <path id="svg_138" d="m4203.867725,3717.600027c6.6,-0.5 15.2,0.1 20,5.3c2.6,2.8 6.9,-1.4 4.2,-4.2c-5.8,-6.3 -16,-7.6 -24.2,-7c-3.8,0.2 -3.9,6.2 0,5.9l0,0z" class="st15"/>
    </g>
   </g>
   <g id="svg_139">
    <g id="svg_140">
     <path id="svg_141" d="m4222.267725,3753.300027c-5.4,-7.2 -20.1,-10.1 -28.5,-7.4c-3.7,1.2 -2.1,7 1.6,5.8c5.5,-1.8 18,-0.3 21.7,4.6c2.3,3 7.5,0 5.2,-3l0,0z" class="st15"/>
    </g>
   </g>
   <g id="svg_142">
    <g id="svg_143">
     <path id="svg_144" d="m4216.667725,3786.100027c-7.7,-1.5 -16.1,-0.8 -23.9,-0.2c-3.8,0.3 -3.9,6.3 0,6c7.2,-0.5 15.2,-1.4 22.3,0c3.8,0.7 5.4,-5.1 1.6,-5.8l0,0z" class="st15"/>
    </g>
   </g>
   <g id="svg_145">
    <g id="svg_146">
     <path id="svg_147" d="m4221.167725,3817.200027c-7.6,1.9 -16.1,2.6 -23.8,1.2c-3.8,-0.7 -5.4,5.1 -1.6,5.8c8.8,1.5 18.3,0.9 27,-1.2c3.7,-1 2.1,-6.8 -1.6,-5.8l0,0z" class="st15"/>
    </g>
   </g>
   <g id="svg_148">
    <g id="svg_149">
     <path id="svg_150" d="m4234.267725,3850.600027c-6,4 -13.2,5.7 -20.3,5.1c-3.9,-0.3 -3.8,5.7 0,6c8.1,0.6 16.6,-1.4 23.4,-5.9c3.1,-2.1 0.1,-7.3 -3.1,-5.2l0,0z" class="st15"/>
    </g>
   </g>
   <g id="svg_151">
    <g id="svg_152">
     <path id="svg_153" d="m4265.267725,3860.700027c-4.5,8.1 -12.5,14.9 -21.7,16.7c-3.8,0.7 -2.2,6.5 1.6,5.8c10.7,-2.1 20.1,-10.1 25.3,-19.5c1.8,-3.3 -3.4,-6.3 -5.2,-3l0,0z" class="st15"/>
    </g>
   </g>
   <g id="svg_154">
    <g id="svg_155">
     <path id="svg_156" d="m4231.267725,3693.000027c6.9,0.6 15.9,1.4 20.5,7.3c2.3,3 7.5,0 5.2,-3c-6.1,-8 -16.2,-9.5 -25.7,-10.3c-3.9,-0.3 -3.9,5.7 0,6l0,0z" class="st15"/>
    </g>
   </g>
   <g id="svg_157">
    <g id="svg_158">
     <path id="svg_159" d="m4097.967725,3677.900027c-8,-10.7 -23.1,-18.3 -36.5,-16.4c-3.8,0.5 -2.2,6.3 1.6,5.8c10.4,-1.4 23.6,5.5 29.8,13.7c2.2,3 7.4,0 5.1,-3.1l0,0z" class="st15"/>
    </g>
   </g>
   <g id="svg_160">
    <g id="svg_161">
     <path id="svg_162" d="m4087.567725,3699.000027c-7,-9.3 -24.2,-14.9 -35.5,-11.9c-3.7,1 -2.2,6.8 1.6,5.8c8.4,-2.2 23.4,2.1 28.7,9.2c2.3,3 7.5,0 5.2,-3.1l0,0z" class="st15"/>
    </g>
   </g>
   <g id="svg_163">
    <g id="svg_164">
     <path id="svg_165" d="m4068.567725,3731.500027c-10.6,-4.2 -25.3,-7.1 -36.5,-3.8c-3.7,1.1 -2.1,6.9 1.6,5.8c10.3,-3 23.6,-0.1 33.3,3.8c3.6,1.5 5.1,-4.3 1.6,-5.8l0,0z" class="st15"/>
    </g>
   </g>
   <g id="svg_166">
    <g id="svg_167">
     <path id="svg_168" d="m4063.467725,3766.200027c-7.1,1.6 -14.3,2.5 -21.4,3.3c-4,0.4 -11.1,2.2 -14.6,0.9c-3.7,-1.3 -5.2,4.5 -1.6,5.8c4.6,1.6 11.6,-0.2 16.2,-0.7c7.7,-0.9 15.4,-1.9 23,-3.6c3.7,-0.8 2.1,-6.5 -1.6,-5.7l0,0z" class="st15"/>
    </g>
   </g>
   <g id="svg_169">
    <g id="svg_170">
     <path id="svg_171" d="m4068.967725,3799.100027c-10.1,6.1 -21.6,9.3 -33.4,9.1c-3.9,0 -3.9,6 0,6c12.8,0.1 25.5,-3.3 36.4,-10c3.4,-1.9 0.3,-7.1 -3,-5.1l0,0z" class="st15"/>
    </g>
   </g>
   <g id="svg_172">
    <g id="svg_173">
     <path id="svg_174" d="m4082.367725,3831.100027c-6,9.3 -15.2,12 -25.9,11.1c-3.8,-0.3 -3.8,5.7 0,6c12.9,1.2 23.9,-3 31.1,-14c2.1,-3.3 -3.1,-6.3 -5.2,-3.1l0,0z" class="st15"/>
    </g>
   </g>
  </g>
  <g id="svg_175">
   <path id="svg_176" d="m4501.767725,3843.600027c7.7,-3.1 18,-7.6 25.4,-12.4c102.3,-70.3 72.3,-143 64.7,-188c-7.7,-45 -29.4,-210.2 -74,-205c-28.7,3.3 -22.9,30.5 -16.7,37.1c17.3,18.2 27.4,79.5 47,163.2c23.8,102 6.4,127.3 -63,165.1" class="st14"/>
   <path id="svg_177" d="m4512.167725,3494.400027c21.4,6.8 45.8,-8.7 41.9,-18" class="st14"/>
   <path id="svg_178" d="m4521.267725,3522.300027c16.1,7.2 45.1,-5.2 43.9,-13.6" class="st14"/>
   <path id="svg_179" d="m4532.267725,3568.000027c14.6,7.5 44.1,-3.8 43.2,-17.4" class="st14"/>
   <path id="svg_180" d="m4541.267725,3607.900027c10.7,7 44.3,2.7 43.3,-9.7" class="st14"/>
   <path id="svg_181" d="m4551.367725,3650.800027c13.4,4.8 41.3,-2.4 40,-10.8" class="st14"/>
   <path id="svg_182" d="m4557.267725,3687.800027c14.3,0.2 42,-1 41.2,-12" class="st14"/>
   <path id="svg_183" d="m4557.467725,3724.600027c3.8,-4.5 40.1,-18.6 43.9,-2" class="st14"/>
   <path id="svg_184" d="m4546.767725,3755.200027c12.9,-7.5 41.7,-4.3 39.8,14.9" class="st14"/>
   <path id="svg_185" d="m4527.567725,3776.600027c12,-4.7 40.8,2.5 35.3,25" class="st14"/>
   <path id="svg_186" d="m4499.367725,3795.700027c17.1,-3.2 40.2,9 23.9,37.9" class="st14"/>
  </g>
  <g id="svg_187">
   <path id="svg_188" d="m3508.067725,3764.100027c2,12.4 1.2,25.2 -2.3,37.3" class="st16"/>
   <path id="svg_189" d="m3524.767725,3757.600027c1.6,13.8 2.5,27.7 2.6,41.6" class="st16"/>
   <path id="svg_190" d="m3542.067725,3755.800027c4.1,13.8 6.8,27.9 8.1,42.2" class="st16"/>
   <path id="svg_191" d="m3561.767725,3744.600027c2.9,6.4 4.6,13.2 5.1,20.2" class="st16"/>
   <path id="svg_192" d="m3572.267725,3743.100027c3.4,10.3 6.8,20.6 10.2,30.9" class="st16"/>
   <path id="svg_193" d="m3589.867725,3738.100027c2.1,9.2 4.1,18.4 6.2,27.6" class="st16"/>
   <path id="svg_194" d="m3609.067725,3725.000027c0.2,11.1 1.2,22.2 3,33.1" class="st16"/>
   <path id="svg_195" d="m3628.067725,3718.200027c0.5,21.1 1,42.2 1.4,63.3" class="st16"/>
   <path id="svg_196" d="m3646.967725,3721.600027c-3.8,23.9 -4.5,48.3 -2.1,72.3" class="st16"/>
   <path id="svg_197" d="m3656.467725,3741.000027c5.9,10.2 10.7,21.1 14.1,32.5" class="st16"/>
   <path id="svg_198" d="m3672.767725,3714.500027c6.1,10.6 8.9,22.9 8.1,35.1" class="st16"/>
   <path id="svg_199" d="m3687.967725,3708.700027c5.2,7.7 7.7,17.1 7,26.3" class="st16"/>
   <path id="svg_200" d="m3695.267725,3700.100027c1.7,-1.6 4.2,0.8 5.2,3c6.9,14.8 10.3,31.1 9.8,47.4" class="st16"/>
   <path id="svg_201" d="m3713.767725,3701.400027c2.5,1.2 3.5,4.1 4.1,6.8c3.8,15.2 4.5,31.2 2.1,46.8" class="st16"/>
   <path id="svg_202" d="m3735.467725,3700.000027c2,2 2.3,5.1 2.4,8c0.8,20.2 0,40.5 -2.5,60.6" class="st16"/>
   <path id="svg_203" d="m3755.267725,3688.800027c2.6,3.1 3,7.5 3.1,11.6c0.3,12 -0.9,23.9 -3.5,35.6" class="st16"/>
   <path id="svg_204" d="m3772.267725,3693.800027c4.8,13.5 5.8,28.4 2.8,42.4" class="st16"/>
   <path id="svg_205" d="m3785.067725,3701.600027c2.8,3 2.8,7.6 2.6,11.7c-0.5,11.3 -1.4,22.6 -2.7,33.9" class="st16"/>
   <path id="svg_206" d="m3815.767725,3688.400027c-0.5,-0.1 0,-1 0.5,-0.8c0.5,0.2 0.5,0.8 0.5,1.4c-0.8,24.1 -4.8,48.1 -11.9,71.2" class="st16"/>
   <path id="svg_207" d="m3831.967725,3710.500027c-3.1,12.4 -6.2,24.7 -9.3,37.1" class="st16"/>
   <path id="svg_208" d="m3838.867725,3719.800027c0.1,6.3 -1.1,12.6 -3.4,18.4" class="st16"/>
   <path id="svg_209" d="m3854.167725,3705.500027c-0.4,11.5 -1.4,23 -2.9,34.4" class="st16"/>
   <path id="svg_210" d="m3866.367725,3661.000027c-0.4,-0.5 -0.9,-1 -1.3,-1.4c8,27 8.2,56.3 0.5,83.4" class="st16"/>
   <path id="svg_211" d="m3890.667725,3662.400027c5.1,16.7 6.6,34.5 4.2,51.9" class="st16"/>
   <path id="svg_212" d="m3906.667725,3675.000027c2.1,11.4 2.6,23.1 1.4,34.6" class="st16"/>
   <path id="svg_213" d="m3918.067725,3677.300027c0.3,9.8 0,19.6 -0.9,29.3" class="st16"/>
   <path id="svg_214" d="m3935.267725,3671.900027c-1.1,16.4 -3.8,32.7 -8,48.5" class="st16"/>
   <path id="svg_215" d="m3946.367725,3686.100027c-3,16.1 -6.6,32 -10.8,47.8" class="st16"/>
   <path id="svg_216" d="m3955.667725,3692.400027c-1.6,8.8 -3.8,17.4 -6.6,25.9" class="st16"/>
   <path id="svg_217" d="m3968.267725,3689.500027c-2.3,6.4 -3.9,13.1 -4.8,19.9" class="st16"/>
   <path id="svg_218" d="m3490.567725,3772.300027c2.9,10.6 3.6,21.7 2.1,32.6c-0.4,2.9 -1.2,6.1 -3.7,7.6" class="st16"/>
   <path id="svg_219" d="m3481.667725,3791.900027c1.7,7.9 1.6,16.1 -0.2,23.9" class="st16"/>
   <path id="svg_220" d="m3465.367725,3804.000027c-1.4,-0.6 -2.3,1.4 -2.4,2.9c-0.5,5.1 -1.1,10.2 -1.6,15.3" class="st16"/>
   <path id="svg_221" d="m3448.467725,3810.200027c-1.9,5.6 -3.9,11.3 -5.8,16.9" class="st16"/>
   <path id="svg_222" d="m3433.267725,3815.000027c-2,2.4 -3.5,5.2 -4.3,8.2" class="st16"/>
   <path id="svg_223" d="m4654.067725,3755.800027" class="st16"/>
   <path id="svg_224" d="m4653.267725,3753.900027c8.1,2.7 13.8,11.2 13.4,19.7" class="st16"/>
   <path id="svg_225" d="m4670.067725,3750.500027c7,12.7 10.1,27.4 8.9,41.8" class="st16"/>
   <path id="svg_226" d="m4685.967725,3755.400027c8.3,16.1 11.7,34.8 9.7,52.8" class="st16"/>
   <path id="svg_227" d="m4700.667725,3739.700027c4.8,15.6 7.7,31.8 8.6,48.1" class="st16"/>
   <path id="svg_228" d="m4714.867725,3739.800027c2.5,16.6 5,33.3 7.5,49.9" class="st16"/>
   <path id="svg_229" d="m4728.867725,3738.900027c-0.2,11.9 0.6,23.8 2.6,35.6" class="st16"/>
   <path id="svg_230" d="m4744.967725,3730.000027c2.3,15 3.1,30.2 2.5,45.4" class="st16"/>
   <path id="svg_231" d="m4767.167725,3733.600027c-7,20.3 -12.4,41.1 -16.1,62.2" class="st16"/>
   <path id="svg_232" d="m4782.167725,3750.500027c-8.9,11.7 -14.1,26.2 -14.8,40.9" class="st16"/>
   <path id="svg_233" d="m4797.467725,3745.300027c-10.2,16.2 -16.4,34.9 -18,54" class="st16"/>
   <path id="svg_234" d="m4813.367725,3756.700027c-6.7,8.8 -11.1,19.2 -12.9,30.2" class="st16"/>
   <path id="svg_235" d="m4828.167725,3753.800027c-5.7,5.7 -9.2,13.5 -9.7,21.6" class="st16"/>
   <path id="svg_236" d="m4842.467725,3752.100027c-5.6,7.2 -9.2,16 -10.3,25" class="st16"/>
   <path id="svg_237" d="m4859.367725,3748.600027c-6,9.8 -10.2,20.8 -12.3,32.1" class="st16"/>
   <path id="svg_238" d="m4886.767725,3752.900027c-12,13.6 -20.3,30.5 -23.7,48.3" class="st16"/>
   <path id="svg_239" d="m4887.867725,3777.000027c-4.8,4.5 -8.2,10.6 -9.4,17.1" class="st16"/>
   <path id="svg_240" d="m4703.067725,3662.400027c0.1,11.9 -0.6,23.8 -1.9,35.6" class="st16"/>
   <path id="svg_241" d="m4687.667725,3670.300027c-2.2,3.8 -3,8.3 -2.4,12.6" class="st16"/>
   <path id="svg_242" d="m4706.667725,3673.000027c2.7,0.3 4,3.3 4.7,5.9c2,7.4 2.8,15.1 2.3,22.7" class="st16"/>
   <path id="svg_243" d="m4719.967725,3674.900027c2.9,0.2 4,3.8 4.4,6.7c0.9,6.7 1.8,13.3 2.7,20" class="st16"/>
   <path id="svg_244" d="m4741.767725,3676.600027c0.3,11 0.7,22 1,32.9" class="st16"/>
   <line id="svg_245" y2="3706.000027" x2="4755.167725" y1="3676.000027" x1="4755.167725" class="st16"/>
   <path id="svg_246" d="m4772.867725,3676.700027c-0.6,19.9 -2.4,39.8 -5.3,59.5" class="st16"/>
   <path id="svg_247" d="m4812.467725,3666.000027c-4.1,15.8 -7.3,31.9 -9.6,48" class="st16"/>
   <path id="svg_248" d="m4840.067725,3666.900027c-9.4,15 -15.3,32.1 -17.2,49.7" class="st16"/>
   <path id="svg_249" d="m4856.767725,3681.900027c-7.4,11.8 -12.7,24.8 -15.8,38.3" class="st16"/>
   <path id="svg_250" d="m4865.767725,3705.100027c-4.1,5.3 -7.2,11.3 -9,17.8" class="st16"/>
   <path id="svg_251" d="m4788.867725,3685.400027c-2.6,6.2 -4,13 -3.9,19.8" class="st16"/>
   <path id="svg_252" d="m4876.767725,3697.100027c0.1,23.5 -4.8,47.1 -14.4,68.5" class="st16"/>
   <path id="svg_253" d="m4886.567725,3730.100027c-2.1,10.9 -5.2,21.6 -9.2,31.9" class="st16"/>
   <path id="svg_254" d="m4908.267725,3725.000027c-6.3,11.8 -11.6,24.2 -15.9,37" class="st16"/>
   <path id="svg_255" d="m4937.767725,3717.500027c-7,8.9 -12.7,18.9 -16.8,29.4" class="st16"/>
   <path id="svg_256" d="m4965.167725,3702.800027c-7.7,16.5 -15.4,32.9 -23.1,49.4" class="st16"/>
   <path id="svg_257" d="m4979.967725,3716.100027c-12,15.6 -22.5,32.4 -31.2,50.1" class="st16"/>
   <path id="svg_258" d="m4985.867725,3733.600027c-5.3,8 -10.5,16 -15.8,24c-0.8,1.2 -0.9,3.7 0.5,3.4" class="st16"/>
   <path id="svg_259" d="m5003.967725,3741.700027c-4.1,10.8 -9.4,21.2 -15.6,30.9" class="st16"/>
   <path id="svg_260" d="m5023.467725,3721.500027c-0.2,-0.6 0.9,-1 1.4,-0.6c0.5,0.4 0.6,1.2 0.6,1.8c0.2,9.7 0.5,19.3 0.7,29" class="st16"/>
   <path id="svg_261" d="m5037.967725,3742.900027c-0.6,4.2 -1.4,8.4 -2.6,12.5" class="st16"/>
   <path id="svg_262" d="m5045.667725,3747.500027c-1.3,4.9 -2.7,9.8 -4,14.7" class="st16"/>
   <path id="svg_263" d="m5056.867725,3751.200027c-2.9,5.8 -5.1,12 -6.5,18.4" class="st16"/>
   <path id="svg_264" d="m5085.767725,3707.000027c2.4,1.6 2.2,5.1 1.6,7.9c-4,19.9 -10.4,39.3 -19.1,57.7" class="st16"/>
   <path id="svg_265" d="m5114.667725,3722.000027c-11.3,22.1 -21.9,44.5 -32,67.2" class="st16"/>
   <path id="svg_266" d="m5123.367725,3741.900027c-13.5,17.3 -24.3,36.7 -31.9,57.3" class="st16"/>
   <path id="svg_267" d="m5140.267725,3754.000027c-16.3,19 -30.1,40.1 -41.2,62.5" class="st16"/>
   <path id="svg_268" d="m5146.167725,3774.800027c-7.9,7.9 -14.7,16.9 -20.2,26.6c-0.9,1.6 -0.9,4.6 0.9,4.2" class="st16"/>
   <path id="svg_269" d="m5161.367725,3787.000027c-5.4,4.5 -9.8,10.2 -12.7,16.6" class="st16"/>
   <path id="svg_270" d="m5176.867725,3792.000027c1.1,0.8 1.1,2.6 0.2,3.5" class="st16"/>
   <path id="svg_271" d="m5175.667725,3788.500027c0.4,-1.4 1.7,-2.6 3.1,-3c5.1,14.6 2.7,31.6 -6.4,44.2" class="st16"/>
   <path id="svg_272" d="m5200.767725,3802.200027c-2.2,7 -5,13.9 -8.3,20.5c2.7,-0.3 5.3,-0.7 8,-1" class="st16"/>
   <path id="svg_273" d="m5221.067725,3812.700027c-2.4,4.3 -4.3,8.9 -5.7,13.7c-0.4,1.2 -0.7,2.6 -0.3,3.8s2,2.1 3,1.4" class="st16"/>
   <path id="svg_274" d="m5241.667725,3804.000027c-0.3,9.5 -2.8,19 -7.1,27.5" class="st16"/>
   <path id="svg_275" d="m5257.067725,3810.200027c-3,7.9 -6.1,15.9 -9.1,23.8" class="st16"/>
   <path id="svg_276" d="m5270.467725,3819.900027c-2.7,9.3 -6.8,18.3 -12.1,26.5" class="st16"/>
   <path id="svg_277" d="m5294.267725,3823.300027c-6.9,10.6 -13.8,21.3 -20.7,31.9" class="st16"/>
   <path id="svg_278" d="m5310.767725,3829.200027c-5.3,9.9 -11.5,19.3 -18.4,28.1" class="st16"/>
   <path id="svg_279" d="m5316.667725,3847.500027c-6.4,6.1 -11.6,13.5 -15.2,21.6" class="st16"/>
   <path id="svg_280" d="m5331.767725,3862.100027c-7,7.1 -12.9,15.3 -17.4,24.3" class="st16"/>
   <path id="svg_281" d="m5346.267725,3870.400027c-4.1,5.7 -8.2,11.4 -12.3,17.1c0.8,-0.4 1.7,-0.9 2.5,-1.3" class="st16"/>
   <path id="svg_282" d="m5352.767725,3875.900027c0.8,-1 2.5,-1.3 3.5,-0.5c-4.6,7.2 -8.8,14.6 -12.5,22.2c2,0.5 4,-0.6 5.7,-1.6c6.6,-3.7 13.1,-7.4 19.7,-11.1" class="st16"/>
   <path id="svg_283" d="m5376.767725,3887.500027c-2.1,3.1 -4.3,6.3 -6.4,9.4" class="st16"/>
   <path id="svg_284" d="m4856.667725,3844.800027c0.6,3.3 1.3,6.5 1.9,9.8" class="st16"/>
   <path id="svg_285" d="m4866.767725,3840.200027c2.2,2.1 3.4,5.1 3.3,8.1" class="st16"/>
   <line id="svg_286" y2="3861.000027" x2="4877.167725" y1="3840.000027" x1="4877.167725" class="st16"/>
   <line id="svg_287" y2="3864.000027" x2="4896.167725" y1="3824.000027" x1="4896.167725" class="st16"/>
   <path id="svg_288" d="m4924.667725,3807.400027c-1.2,18.4 -2.4,36.8 -3.6,55.1" class="st16"/>
   <path id="svg_289" d="m4944.467725,3813.600027c-1.3,18.7 -2.9,37.4 -4.9,56" class="st16"/>
   <path id="svg_290" d="m4960.867725,3834.100027c-5.1,22.8 -10.2,45.6 -15.3,68.4" class="st16"/>
   <path id="svg_291" d="m4969.967725,3855.400027c-3.7,11.9 -7.3,23.8 -11,35.7c-0.9,2.9 -1.7,6.3 0.1,8.7" class="st16"/>
   <path id="svg_292" d="m4980.567725,3861.600027c-2,10.2 -4.5,20.2 -7.4,30.2" class="st16"/>
   <path id="svg_293" d="m4989.767725,3876.700027c0.5,4.2 0,8.5 -1.5,12.4" class="st16"/>
   <path id="svg_294" d="m5021.567725,3842.000027c1.9,16.6 1,33.5 -2.6,49.9" class="st16"/>
   <path id="svg_295" d="m5053.167725,3826.500027c-1.9,9.9 -3.8,19.8 -5.6,29.7" class="st16"/>
   <path id="svg_296" d="m5069.767725,3824.300027c-3.2,11.4 -4.7,23.2 -4.5,35" class="st16"/>
   <path id="svg_297" d="m5090.367725,3834.400027c-3.1,9.6 -5.6,19.4 -7.5,29.3c3.5,0 6.9,-1.8 8.7,-4.7" class="st16"/>
   <path id="svg_298" d="m5110.467725,3840.100027c-2.5,6.2 -5,12.4 -7.4,18.6c7.7,-0.9 12.7,-8.8 20.1,-11.1c0.6,-0.2 1.2,-0.3 1.7,-0.1c1.3,0.6 0.9,2.6 0.2,3.9c-2.2,4 -4.4,8.1 -6.6,12.1c3,-2.4 5.9,-4.8 8.9,-7.2" class="st16"/>
   <path id="svg_299" d="m5144.667725,3850.600027c-1.3,1.9 -2.7,3.8 -4,5.7" class="st16"/>
   <path id="svg_300" d="m3853.067725,3753.400027c-1.8,8.3 -2.5,16.8 -2.1,25.2" class="st16"/>
   <path id="svg_301" d="m3869.867725,3742.200027c-0.8,11.2 -1.7,22.4 -2.5,33.6" class="st16"/>
   <path id="svg_302" d="m3888.667725,3740.200027c-1.6,13.6 -4.4,27.1 -8.6,40.1" class="st16"/>
   <path id="svg_303" d="m3912.267725,3747.700027c-7.4,14.5 -14.3,29.2 -20.6,44.1" class="st16"/>
   <path id="svg_304" d="m3924.667725,3755.700027c-4.9,10 -9.8,20 -14.7,30.1" class="st16"/>
   <path id="svg_305" d="m3921.967725,3781.800027c-2.3,5.2 -4.5,10.5 -6.8,15.7" class="st16"/>
   <path id="svg_306" d="m3829.167725,3763.300027c-0.2,3 -0.4,6 -0.6,9" class="st16"/>
  </g>
  <path id="svg_307" d="m2998.867725,2433.900027" class="st17"/>
  <path id="svg_308" d="m4362.967725,3254.200027c21.5,44.7 17.3,91.3 -9.3,104.1l-67.1,35l-29.2,15.2l-100.2,52.2c25.6,-14.2 29.2,-60.6 7.8,-105.1c-20.9,-43.5 -58.2,-69.4 -85.2,-60.1l196,-99c26.6,-12.7 65.6,13.1 87.2,57.7z" class="st10"/>
  <path id="svg_309" d="m4346.967725,3338.300027c11.3,-4.4 14.2,-24.2 6.5,-44.3c-7.8,-20.1 -23.2,-32.8 -34.6,-28.5l-115.7,56c-12,4.6 -15,25.5 -6.8,46.7c8.2,21.2 24.5,34.6 36.5,30c1,-0.4 1.9,-0.9 2.7,-1.4l111.4,-58.5z" class="st8"/>
  <path id="svg_310" d="m4315.967725,3331.100027l-5.3,2.8c-0.6,-5.1 -2,-10.6 -4.1,-16c-2.9,-7.4 -6.7,-13.8 -11,-18.9l5.3,-2.8c4.3,5.1 8.1,11.5 11,18.9c2.1,5.4 3.5,10.9 4.1,16z" class="st18"/>
  <path id="svg_311" d="m4298.667725,3339.300027l-5.3,2.8c-0.7,-5.1 -2,-10.6 -4.1,-16c-2.9,-7.4 -6.7,-13.8 -11,-18.9l5.3,-2.9c4.3,5.1 8.1,11.5 11,18.9c2.1,5.6 3.5,11 4.1,16.1z" class="st18"/>
  <path id="svg_312" d="m4281.467725,3347.500027l-5.3,2.8c-0.7,-5.1 -2,-10.6 -4.1,-16c-2.9,-7.4 -6.7,-13.8 -11,-18.9l5.3,-2.8c4.3,5.1 8.1,11.5 11,18.9c2.1,5.5 3.4,10.9 4.1,16z" class="st18"/>
  <path id="svg_313" d="m4234.967725,3353.300027c6.4,16.7 4,33.1 -5.4,36.8c-9.4,3.6 -22.2,-6.9 -28.7,-23.6c-6.4,-16.7 -4,-33.1 5.4,-36.8c9.4,-3.6 22.3,6.9 28.7,23.6z" class="st1"/>
  <path id="svg_314" d="m4133.167725,3342.200027c-7.3,-1.6 -21.7,16.4 -21,35.4c-10,-14 -7.2,-54.3 12,-50c5.7,6.4 9,14.6 9,14.6z" class="st9"/>
  <path id="svg_315" d="m4160.667725,3357.700027c13.5,28 16.2,56.8 8.9,76.4l0,0c-81.3,-1.5 -96.7,-80.5 -62.2,-130.6c19.6,6.7 40,26.6 53.3,54.2zm-48.5,19.9c-0.7,-19 13.7,-37 21,-35.4c0,0 -3.4,-8.2 -9,-14.7c-19.2,-4.2 -22,36.1 -12,50.1z" class="st19"/>
  <path id="svg_316" d="m4169.567725,3434.100027c-3.5,9.5 -9.4,16.8 -17.6,20.8c-24.9,12 -61.3,-12.1 -81.4,-53.7c-20.1,-41.7 -16.2,-85.2 8.7,-97.1c8.4,-4 18.1,-4 28,-0.5c-34.4,50 -18.9,129 62.3,130.5z" class="st20"/>
  <path id="svg_317" d="m4164.767725,3355.800027c21.4,44.5 17.8,90.9 -7.8,105.1l-1.7,0.9c-27.1,13.1 -66.9,-13.2 -88.8,-58.6c-20.6,-42.9 -18,-87.5 5.1,-103.4l8,-4l0,0c27,-9.4 64.3,16.5 85.2,60zm4.8,78.3c7.3,-19.5 4.6,-48.4 -8.9,-76.4c-13.3,-27.6 -33.8,-47.5 -53.3,-54.3c-9.9,-3.4 -19.7,-3.5 -28,0.5c-24.9,12 -28.8,55.5 -8.7,97.1c20.1,41.7 56.5,65.7 81.4,53.7c8.1,-3.8 14,-11.1 17.5,-20.6l0,0z" class="st10"/>
  <g id="svg_318">
   <path id="svg_319" d="m4281.467725,3347.500027c-0.7,-5.1 -2,-10.6 -4.1,-16c-2.9,-7.4 -6.7,-13.8 -11,-18.9l-5.3,2.8c4.3,5.1 8.1,11.5 11,18.9c2.1,5.4 3.5,10.9 4.1,16l5.3,-2.8z" class="st1"/>
  </g>
  <g id="svg_320">
   <path id="svg_321" d="m4298.767725,3339.300027c-0.7,-5.1 -2,-10.6 -4.1,-16c-2.9,-7.4 -6.7,-13.8 -11,-18.9l-5.3,2.8c4.3,5.1 8.1,11.5 11,18.9c2.1,5.4 3.5,10.9 4.1,16l5.3,-2.8z" class="st1"/>
  </g>
  <g id="svg_322">
   <path id="svg_323" d="m4315.967725,3331.100027c-0.7,-5.1 -2,-10.6 -4.1,-16c-2.9,-7.4 -6.7,-13.8 -11,-18.9l-5.3,2.8c4.3,5.1 8.1,11.5 11,18.9c2.1,5.4 3.5,10.9 4.1,16l5.3,-2.8z" class="st1"/>
  </g>
  <g id="svg_324">
   <path id="svg_325" d="m4024.967725,3481.600027l0,0c-28.3,4 -46,14.9 -54.1,26.8c3.7,-23.3 7.7,-70.3 -28.7,-90.2c50.5,27 82.8,63.4 82.8,63.4z" class="st10"/>
   <path id="svg_326" d="m4132.867725,3540.000027c4.8,5.1 47.6,48.3 72.9,73.7c-20.4,-18.5 -41.6,-21.4 -68,-17.2c-26.4,4.3 -37.6,27.1 -37.6,27.1l-119.8,-75.8l-29.6,-14.3l0,-6.3c22.6,11.1 30.6,14.8 30.6,14.8s54.2,-71.3 151.5,-2z" class="st10"/>
  </g>
  <g id="svg_327">
   <g id="svg_328">
    <g id="svg_329">
     <path id="svg_330" d="m3870.367725,3443.200027c18,-1.9 37.5,-0.2 52.1,11.6c21.1,17 25,47.1 25.3,72.4c0,1 0.5,2.1 1.5,2.6c10.2,5 20.4,10 30.6,14.8c1.6,0.8 3,0.3 4.1,-1.1c-1,1.3 0.9,-1 1.2,-1.4c1.5,-1.7 3,-3.2 4.6,-4.7c5.3,-5 11.2,-9.4 17.5,-13c21,-12 45.6,-14.4 68.9,-8.7c18.1,4.4 35,13.1 50.4,23.5c5.6,3.8 10,8.9 14.8,13.7c15.4,15.6 30.8,31.2 46.3,46.7c11.4,11.5 22.9,23.1 34.3,34.6c2.7,2.7 7,-1.5 4.2,-4.2c-26.4,-26.6 -52.8,-53.1 -79.1,-79.8c-4,-4.1 -7.9,-8.6 -12.2,-12.4c-7.6,-6.7 -17.7,-11.9 -26.7,-16.4c-7.9,-4 -16.1,-7.4 -24.5,-9.9c-24.6,-7.3 -50.9,-6.5 -74.2,4.8c-11.5,5.6 -23,13.8 -30.8,24.1c1.4,-0.4 2.7,-0.7 4.1,-1.1c-10.3,-4.8 -20.4,-9.8 -30.6,-14.8c0.5,0.9 1,1.7 1.5,2.6c-0.2,-22.7 -3.3,-47.7 -17.3,-66.5c-9.6,-12.9 -23.9,-20.7 -39.7,-23.2c-8.7,-1.4 -17.6,-1.3 -26.4,-0.4c-3.7,0.6 -3.7,6.6 0.1,6.2l0,0z" class="st10"/>
    </g>
   </g>
   <g id="svg_331">
    <g id="svg_332">
     <path id="svg_333" d="m3898.267725,3429.800027c15.9,1 31.5,6.3 42.7,18c16.1,16.8 19.9,41.7 20.4,64c0.1,3.9 6.1,3.9 6,0c-0.5,-24 -4.9,-50.2 -22.1,-68.3c-12.3,-12.9 -29.4,-18.7 -46.9,-19.8c-4,-0.2 -4,5.8 -0.1,6.1l0,0z" class="st10"/>
    </g>
   </g>
   <g id="svg_334">
    <g id="svg_335">
     <path id="svg_336" d="m3973.667725,3509.200027c5.4,-34.3 3.2,-75.9 -31.3,-94.3c-1,1.7 -2,3.5 -3,5.2c30.5,16.3 60.3,37.7 83.4,63.6c2.6,2.9 6.8,-1.4 4.2,-4.2c-23.4,-26.3 -53.7,-48.1 -84.6,-64.6c-3.4,-1.8 -6.4,3.4 -3,5.2c31.9,17 33.5,55.8 28.5,87.5c-0.5,3.8 5.2,5.4 5.8,1.6l0,0z" class="st10"/>
    </g>
   </g>
   <g id="svg_337">
    <g id="svg_338">
     <path id="svg_339" d="m3973.367725,3509.900027c7.6,-10.9 20.4,-17.3 32.8,-21.1c21,-6.5 43.7,-6.8 65.4,-4.7c17.9,1.7 35.5,5.3 52.9,9.9c3.7,1 5.3,-4.8 1.6,-5.8c-29,-7.6 -59.3,-12.8 -89.3,-10.8c-18.1,1.2 -37.1,5 -52.7,14.8c-6.1,3.9 -11.6,8.7 -15.8,14.7c-2.2,3.2 2.9,6.2 5.1,3l0,0z" class="st10"/>
    </g>
   </g>
   <g id="svg_340">
    <g id="svg_341">
     <path id="svg_342" d="m3971.667725,3522.100027c9.5,-8.2 19.4,-15.6 31.4,-19.8c19.6,-6.9 41.2,-6.4 61.5,-3.7c19.6,2.5 38.9,7.3 57.8,12.8c3.7,1.1 5.3,-4.7 1.6,-5.8c-29.8,-8.6 -61.3,-16.1 -92.6,-14.5c-16.8,0.9 -33.3,4.9 -47.5,14c-5.9,3.8 -11.3,8.2 -16.5,12.8c-2.8,2.5 1.4,6.7 4.3,4.2l0,0z" class="st10"/>
    </g>
   </g>
   <g id="svg_343">
    <g id="svg_344">
     <path id="svg_345" d="m4226.267725,3612.800027c-29.4,-31 -58.8,-62.1 -88.2,-93.1c-4.2,-4.5 -8.5,-8.9 -12.7,-13.4c-2.7,-2.8 -6.9,1.4 -4.2,4.2c29.4,31 58.8,62.1 88.2,93.1c4.2,4.5 8.5,8.9 12.7,13.4c2.6,2.8 6.9,-1.4 4.2,-4.2l0,0z" class="st10"/>
    </g>
   </g>
   <g id="svg_346">
    <g id="svg_347">
     <path id="svg_348" d="m4229.367725,3605.100027c-0.5,-1.6 -2.1,-3 -3.2,-4.3c-2.3,-2.7 -4.6,-5.4 -7,-8c-8,-9.1 -16,-18.2 -24,-27.3c-18.3,-20.7 -36.7,-41.4 -55,-62.1c-4.3,-4.8 -8.5,-9.6 -12.8,-14.4c-2.6,-2.9 -6.8,1.4 -4.2,4.2c29.4,33 58.8,66 87.9,99.3c3.1,3.6 6.3,7.2 9.4,10.8c0.9,1 1.8,2.1 2.6,3.1c1,1.1 0.8,1.4 0.5,0.3c1.1,3.7 6.9,2.1 5.8,-1.6l0,0z" class="st10"/>
    </g>
   </g>
   <g id="svg_349">
    <g id="svg_350">
     <path id="svg_351" d="m4207.867725,3611.600027c-9.7,-8.6 -20.9,-15.3 -33.8,-18c-12.8,-2.7 -26.6,-2.1 -39.3,0.5c-15.2,3.2 -30.2,14 -37.2,28.1c1.4,-0.4 2.7,-0.7 4.1,-1.1c-18.8,-11.9 -37.7,-23.9 -56.5,-35.8c-20.9,-13.2 -41.4,-27.4 -62.8,-39.7c-9.6,-5.5 -20.1,-9.8 -30.1,-14.6c0.5,0.9 1,1.7 1.5,2.6c0,-2.1 0,-4.2 0,-6.3c0,-3.9 -6,-3.9 -6,0c0,2.1 0,4.2 0,6.3c0,1 0.6,2.1 1.5,2.6c9.8,4.8 20.1,9 29.7,14.3c6.3,3.5 12.2,7.7 18.2,11.5c26.6,16.8 53.2,33.7 79.8,50.5c7.3,4.6 14.5,9.2 21.8,13.8c1.3,0.8 3.4,0.3 4.1,-1.1c6.2,-12.4 18.9,-21.9 32.2,-25c24.6,-5.9 49.6,-1.3 68.7,15.7c2.8,2.5 7,-1.7 4.1,-4.3l0,0z" class="st10"/>
    </g>
   </g>
  </g>
 </g>
</svg>