<?xml version="1.0" encoding="utf-8"?>
<!-- Generator: Adobe Illustrator 20.1.0, SVG Export Plug-In . SVG Version: 6.00 Build 0)  -->
<svg version="1.1" id="Layer_1" xmlns="http://www.w3.org/2000/svg" xmlns:xlink="http://www.w3.org/1999/xlink" x="0px" y="0px"
	 viewBox="0 0 5000 4000" style="enable-background:new 0 0 5000 4000;" xml:space="preserve">
<style type="text/css">
	.st0{fill:#1DDCED;}
	.st1{fill:#62E2F7;}
	.st2{fill:#52A000;}
	.st3{fill:#77460C;}
	.st4{fill:#4C9F24;}
	.st5{fill:#CB7C22;}
	.st6{fill:none;stroke:#1DDCED;stroke-width:3;stroke-miterlimit:10;}
	.st7{fill:#81EEF8;}
	.st8{fill:#025FF2;}
	.st9{fill:#00FFFF;}
	.st10{fill:#AAF5F9;}
	.st11{fill:#FFE800;}
	.st12{fill:#FAB007;}
	.st13{fill:#025FF2;stroke:#025FF2;stroke-width:6;stroke-linecap:round;stroke-linejoin:round;stroke-miterlimit:10;}
	.st14{fill:none;stroke:#025FF2;stroke-width:6;stroke-linecap:round;stroke-linejoin:round;stroke-miterlimit:10;}
	.st15{fill:#2A95F1;}
	.st16{fill:none;stroke:#009100;stroke-width:7;stroke-linecap:round;stroke-linejoin:round;stroke-miterlimit:10;}
	.st17{fill:none;stroke:#0000FF;stroke-width:2;stroke-miterlimit:10;}
	.st18{fill:#0000FF;}
	.st19{fill:#0129F2;}
	.st20{fill:#49B3FD;}
</style>
<rect x="-28.5" y="-27.4" class="st0" width="5058.1" height="4026.6"/>
<rect x="2836.2" y="3390.9" class="st1" width="82.3" height="69.9"/>
<path class="st2" d="M3892.4,4002c-122.6-209-619.6-365.3-1214.1-365.3S1586.8,3793,1464.2,4002H3892.4z"/>
<path class="st3" d="M2810.3,3687.2c7.8-6.4,39.6,4.3,42,18c6.6-17.7,41.6-16.7,41.6-16.7v12.4l33.3-4.7l-2.7-158.6l-45.1-20
	l-34.1,112.7l-38.5,49.4L2810.3,3687.2z"/>
<g>
	<path class="st4" d="M2827.3,2872.8c0,0,0,0,0,0.1c0,1.2-0.5,11.4-19.1,18.9c-26-27-12-89-12-89s-17,32-32.8,39
		c-7.9-9.8-23.3-31.6-21.7-65.2c0.7-1.4,1.3-2.8,1.9-4.1c5.6-13.4,10.6-27,14.9-40.8c-3.8,17.6,6.2,37.7,23.1,44.3
		c12.7,5,27.8,1.7,38.4-6.8c1.6,12.5,2.8,25.4,3.6,38.6C2824.8,2827.8,2826,2849.7,2827.3,2872.8z"/>
	<path class="st4" d="M2248.4,2611.1c-7.2,10.7-13.9,26.6-4.1,34.9c-16.1,95.3-100.3,8.9-117.6,47.1c-4.5,9.9-22.3-2.1-29.5-10.2
		c-1.1,14.6-18.5,22.5-33.1,21.5c-6.6-0.4-13.6-2.4-17.7-7.5c-2.7-3.3-3.4-8.3-2-12.2c1.5-1.6,2.9-3.2,4.2-4.9
		c-2.1,1-3.4,2.8-4.2,4.9c-8.6,9.1-19.5,15.9-31.5,19.5c-7.1,2.2-15.3,3.1-21.7-0.6c-11.4-6.5-11.3-22.7-9.8-35.8
		c-8.8,12.3-11.9,27.8-18.9,41.3c-7,13.5-20.8,25.8-35.7,22.8c-9.7-2-21.3-5.3-27.7-12.8c-14.9-17.4-19-61.2-19.5-71.1
		c5.7,2,11.8,3,17.9,2.8c24.1-0.8,46.2-20.2,50.1-43.9c8.5,20.1,30.7,33.5,52.4,31.6c21.7-1.9,41.3-18.8,46.2-40.1
		c-1.1,11.9,8.3,22.7,19.3,27.3c11,4.6,23.4,4.3,35.3,4c7.8-0.2,17-1.2,21.1-7.9c2.4-3.9,2.3-8.6,2.9-13.1
		c3-20.4,30.5-38.6,50.9-35.7l0.9,0.2c-1.6,9.7-1.3,20,3.7,28.3C2193.2,2622.7,2224.7,2618.3,2248.4,2611.1z"/>
	<path class="st4" d="M2355.3,2532.4c3.1-4.1,5.8-8.4,8.2-12.9C2359.1,2522.6,2356.4,2527.3,2355.3,2532.4z M2549.1,2527.6
		c0-3-0.4-6-1.3-9C2547.7,2521.8,2548.2,2524.8,2549.1,2527.6z M2758.5,2731.7c0.6-1.9,1.2-3.8,1.8-5.7
		C2759.5,2727.8,2758.9,2729.7,2758.5,2731.7z M3226.9,2733.9c0.8-1.6,1.6-3.2,2.4-4.8C3228.5,2730.6,3227.7,2732.2,3226.9,2733.9z
		 M3450.7,2695c5.9,14.3,3.5,32.2,0.6,48.1c-1.3,7.1-3.6,15.5-10.5,17.8c-5.5,1.9-11.3-1.1-16.2-4.3c-12.3-8-23.4-17.9-32.9-29.1
		c-1.9-3-4.2-5.9-6.7-8.5c2.1,2.9,4.4,5.7,6.7,8.5c8.2,12.9,11.1,29.1,7.4,44c-0.6,2.4-1.4,4.8-2.8,6.8c-1.4,2-3.4,3.6-5.6,4.8
		c-3.7,2.1-7.8,3.4-12.1,3.7c2.2,23.1-26,23.3-26,23.3c8.1,10.3,7.2,26.6-2,35.9c-9.2,9.3-25.5,10.4-35.9,2.4
		c-11.9-9.2-14.8-26.9-27-35.9c1.8,34.9-33.9,66.6-68.3,60.8c-3.3-0.5-6.7-1.4-9.2-3.6c-6-5.2-4.4-14.6-3.8-22.5
		c1.1-16.2-4.5-32.7-15.2-44.8c0.1,24.3-11.2,48.4-30,63.8c-11.2-9.8-18.4-23.9-20.2-38.7c0.2-4.6,0.2-9.1-0.1-13.7
		c-0.5,4.5-0.5,9.1,0.1,13.7c-0.9,20.4-5.9,40.7-14.8,59.1c-2.3,4.8-5.3,9.9-10.4,11.6c-7.1,2.4-14.4-2.8-19.7-8
		c-18.9-18.8-32.3-43-37.9-69.1c4.4,18.7,2.5,38.8-5.4,56.3c-17.8-5.7-32.2-21.1-36.9-39.2c3.6,16.6,4.4,33.9,2.3,50.8
		c-0.3,2.5-0.9,5.3-3.1,6.5c-1.9,1-4.2,0.4-6.2-0.2c-9.9-3.4-19-9.3-26.3-16.9c-10.4-84.7-18.5-128.8-5.6-156.5
		c42.5-91.4,134-121.5,135.2-121.9c-5.7-8.4-7.5-19.8-4.4-28.9c4.1-3.5,7.6-7.7,10.3-12.5c-5.1,2.8-8.5,7.3-10.3,12.5
		c-17.5,15-45.6,17.8-64.5,4.1c-11.1-8.1-17.8-21-19.5-34.6l-0.5,0.1c-80.8,47.8-108.2,106.4-128.9,150.3
		c-4.4-21.7-19.4-57.6-37.8-95.4l-0.5-0.1c0,0.1-0.1,0.3-0.1,0.4c-6.2,18.9-21,35.3-40.1,41.4c-9.1,2.9-18.7,3.4-28,1.9
		c14.2,37.9,25.7,81.3,31.9,130.1c-10.6,8.5-25.6,11.8-38.4,6.8c-16.9-6.6-26.9-26.8-23.1-44.3c-4.4,13.8-9.3,27.4-14.9,40.8
		c-0.6,1.4-1.2,2.8-1.9,4.1c-1.4,2.8-3.2,5.3-5.8,7c-8.3,5.3-19.8-2.8-21.8-12.5c4.9-9,7.1-19.7,9-29.9c-5.2,8.9-10.6,18.6-9.2,28.8
		c0.1,0.4,0.1,0.8,0.2,1.1c-1.8,3.2-3.9,6.3-6.5,9c-9.9,10.2-29,12.6-37.3,1.1c-3.2-4.4-4.2-10-4.9-15.4
		c-1.3-10.4-1.6-20.9-0.9-31.4c3.6-4.5,5-10.4,1.7-15.2c-0.8,5-1.4,10.1-1.7,15.2c-3.5,4.4-9.2,7.5-14.9,7.1
		c-11.5-0.7-20.5-10-27.3-19.3c-13.2-18.1-22.8-38.9-27.9-60.7c-2.2,15.4-5.2,30.7-8.9,45.8c-1.3,5.3-2.8,10.8-6.6,14.7
		c-9.7,9.9-28.2,1.9-33.2-11c-2.7-6.9-2.9-14.3-1.8-21.8c2.1-6.2,3.6-12.5,4.6-18.9c-1.8,6.1-3.6,12.5-4.6,18.9
		c-3.3,9.9-7.9,19.3-13.6,28c-4,6-10,12.3-17.2,11.5c-5.3-0.6-9.4-5-12.5-9.3c-10.5-14.8-15.8-33.2-15.1-51.3c0.8-5,1.5-9.9,2-14.9
		c-1.1,4.9-1.8,9.9-2,14.9c-3.1,19.3-8.2,38.4-15.4,56.6c-1.8,4.6-4.4,9.8-9.3,10.7c-5.4,1.1-10-3.6-13.2-8
		c-13.6-18.9-21-42.1-21.4-65.4c3.6-11.8,4.7-24.5,5.3-36.9c-3.8,11.9-5.6,24.4-5.3,36.9c-1.2,4.1-2.8,8.1-4.7,12
		c-7.5,15-22.1,27.5-38.8,28c-16.2,0.5-31.5-10.9-37.6-25.9c-1.3-3.1-2.2-6.3-2.7-9.6c5.7-11.2,7.1-24.4,7.2-37.1
		c-6.5,11.1-9.4,24.5-7.2,37.1c-1,2.1-2.2,4.1-3.6,5.9c-8.8,12.2-26.1,19.4-39.4,12.4c-10.2-5.4-15.4-17.6-15.4-29.1
		c0-11.5,4.4-22.6,9.2-33.1c-8.7,4.6-14.4,13.2-21.9,19.6c-7.5,6.4-19.3,10.1-26.8,3.7c-9.8-8.4-3.1-24.2,4.1-34.9
		c-23.7,7.2-55.3,11.6-68-9.6c-5-8.4-5.3-18.6-3.7-28.3l-0.9-0.2c-20.4-2.8-47.9,15.3-50.9,35.7c-0.6,4.5-0.6,9.3-2.9,13.1
		c-4.1,6.7-13.2,7.6-21.1,7.9c-11.9,0.3-24.3,0.6-35.3-4c-11-4.6-20.4-15.4-19.3-27.3c-4.9,21.3-24.5,38.2-46.2,40.1
		c-21.7,1.9-43.9-11.5-52.4-31.6c-4,23.7-26.1,43.1-50.1,43.9c-6.1,0.2-12.1-0.8-17.9-2.8c-16.9-5.8-31-20.2-35.1-37.7
		c-8.9,12.6-20.8,23-34.5,30.1c-3.6,1.9-7.6,3.5-11.6,3.3c-14.8-0.8-16.7-21.8-14.1-36.3c-5.3,5.8-11,11.8-18.4,14.6
		c-7.4,2.8-17.1,1.2-21-5.7c-1.7-3-2.2-6.5-2.4-9.9c-1.6-19.6,1.5-39.4,8.6-57.7c-18.9-0.9-37.6-4.4-53.9-13.6
		c-21.9-12.2-38.5-37-34.5-61.8c-30.5,6.1-62.5,12.1-92.4,3.4c-29.9-8.7-56.5-37.3-51.8-68.1c-4.3,16.9-23.7,24.3-41.1,24.2
		c-307-3.1-311-510.9,104.1-480.7c-218.6-123.1-97.1-322.5,66.4-279.1c-362.5-121.2-183.5-673.2,186.9-581.2
		c-117.4-372,43.4-592,461.1-696c457.9-114,995.9,61.1,910.9,384c47.1-304,882.7-352,730.7,324c201.4-222.1,596,312,149.2,445.4
		c531.2-15.8,618.1,639.7,385.8,844.6c-91.9,81-169.2,76.6-169.2,76.6c10.9,30.2,10.7,70.4-16.6,87.4c-27.5,17.1-62.8-0.5-90.1-17.8
		c-2.3,15,0,30.3,0.4,45.6c0.4,15.2-1.4,31.4-10.7,43.4c-9.3,12.1-28,17.8-40.2,8.8c6.5,25.6,8.1,52.3,4.7,78.5
		c-1.1,8.8-3.1,18-8.9,24.7c-8.6,9.8-23.1,11.7-36.1,10.7c-27.6-2.1-54.4-13.9-74.4-33c6.9,24.2-11.7,52.3-36.7,55.4
		c-25,3.1-49.9-19.6-49.2-44.7c-13.4,25.2-43.8,40.3-72,35.8c-8-1.3-17.1-6.2-18.9-13.3c0-1.6,0-3.1-0.1-4.6
		c-0.3,1.6-0.2,3.2,0.1,4.6c0,8.9-1,18.5-4.8,25.8c4.8,5.8,6.9,14.1,5.6,21.6c-1.9,11-9.6,20.3-18.8,26.6
		c-9.2,6.3-15.7,7.8-26.1,8.8c-14.6,0.9-29.1-9.1-33.4-23.1c-1.7-5.4-1.7-11.2-0.4-16.7c-22,27.4-49.9,50.2-81.2,66.2
		c-9,4.6-18.7,8.7-28.8,9c-10.1,0.3-21-4-26-12.8c-4.1-7.2-3.8-16-2.8-24.2c5.1-41.2,25.8-80.2,57.1-107.4
		c-29,17.3-58.4,33.9-88.1,49.8c-4.6,2.5-9.5,5-14.7,4.9c-5.2,0-10.8-3.6-11.2-8.8c-0.2-3.2,1.5-6.2,3.1-9
		c10.8-18.1,22.4-35.7,34.6-52.9c-11.9,6.8-23.7,13.6-35.6,20.3c-5.9,3.4-13.8,6.6-18.9,2.2c-4.4-3.8-3.7-10.8-2.2-16.5
		c4.7-18.1,12.8-35.3,23.6-50.6c-26.7,7.4-56.6,3-80-11.6c-1.2,1.4-2.6,2.8-3.9,4c9.3,17.3,13,37.6,10.2,57
		c-1.3,8.8-5.1,18.7-13.6,21c-8.3,2.2-16.3-4-22.3-10.1C3466.2,2716,3457.9,2705.9,3450.7,2695c-1.5-3.7-3.7-7.2-6.5-10.3
		C3446.3,2688.2,3448.4,2691.6,3450.7,2695z"/>
</g>
<g id="XMLID_2_">
	<g>
		<path class="st5" d="M2961.6,3707.8l-6.4-143.1l-35.1-153.8l-69.9-51c0,0-9.1-221-18.7-407.9c0.4,4.6,1.5,10.9,4.1,15.9
			c13-4.8,53.8-34,59.3-52.3c-6.1,33.3,4.4,86.7,33.9,101.3c22.1-31.7,10.2-83.2,7.8-92.5c2,6.6,11.5,33.5,38.6,40.5
			c13.1-29.8,11.3-45.9,11.3-45.9l1-0.1c8.8,80.2,17.2,190.5,14.7,344.6c-6,368.5,28,410.5,123,452.2c0,0-58.4-14.2-71.2-24
			c-0.8,17.2-4.4,31.2-4.4,31.2s-42.2-15-36.3-32c-17.1-3-22.1,26.8-22.1,26.8L2961.6,3707.8z"/>
		<path class="st5" d="M2831.2,2945.8c0.1,2.1,0.2,4.1,0.3,6.2C2831.2,2948.3,2831.2,2945.8,2831.2,2945.8z"/>
	</g>
	<g>
	</g>
</g>
<g>
	<path class="st6" d="M3141.1,2827.4c1.8,14.8,9,28.9,20.2,38.7c18.8-15.4,30.1-39.5,30-63.8c10.7,12.1,16.3,28.7,15.2,44.8
		c-0.6,7.9-2.1,17.3,3.8,22.5c2.5,2.2,5.9,3.1,9.2,3.6c34.5,5.8,70.1-25.9,68.3-60.8c12.2,8.9,15,26.7,27,35.9
		c10.4,8,26.7,6.9,35.9-2.4c9.2-9.3,10.1-25.6,2-35.9c0,0,28.2-0.2,26-23.3c-0.1-1.5-0.4-3.2-0.9-4.9"/>
	<path class="st6" d="M3141.1,2827.4c0.2-4.6,0.2-9.1-0.1-13.7C3140.5,2818.3,3140.5,2822.9,3141.1,2827.4z"/>
	<path class="st6" d="M2973.1,2865.5c2.7,4.7,6,9,9.7,12.9c7.3,7.6,16.4,13.4,26.3,16.9c2,0.7,4.3,1.3,6.2,0.2
		c2.2-1.2,2.8-4,3.1-6.5c2-16.9,1.2-34.1-2.3-50.8c4.6,18.2,19,33.5,36.9,39.2c7.9-17.5,9.9-37.6,5.4-56.3c5.7,26,19,50.3,37.9,69.1
		c5.3,5.3,12.6,10.4,19.7,8c5.1-1.7,8.1-6.8,10.4-11.6c8.9-18.4,13.9-38.7,14.8-59.1"/>
	<path class="st6" d="M3226.9,2733.9c-11,24.3-5.8,55.4,13,74.5c1.8,1.8,3.9,3.6,6.5,3.6c2.1,0,4-1.2,5.6-2.4
		c17-12.6,27.8-33.2,28.5-54.4c1.9,4.6-0.1,9.7-0.7,14.6c-1.2,9.7,3.5,19.4,10.3,26.4c6.8,7.1,15.4,11.9,23.9,16.7
		c5.4,3,12.2,6.1,17.5,2.8c2.4-1.5,3.9-4.1,5.2-6.5c6.2-11.5,11.4-23.5,15.3-36c1.1-3.3,2-6.7,2.9-10.1c1.5-5.6,2.1-12.9-2.9-15.9"
		/>
	<path class="st6" d="M3226.9,2733.9c0.8-1.6,1.6-3.2,2.4-4.8C3228.5,2730.6,3227.7,2732.2,3226.9,2733.9z"/>
	<path class="st6" d="M3156.4,2713.9c-1.3,0.1,0-2.3,1-1.6c1,0.8,0.7,2.3,0.3,3.5c-7.9,23.3-6.9,50.6,7.2,70.7c0.9,1.3,2,2.6,3.5,3
		c1.5,0.3,3.1-0.4,4.4-1.1c22.9-12.4,41.9-31.6,54.1-54.6"/>
	<path class="st6" d="M3450.7,2695c7.2,10.9,15.5,21,24.6,30.4c6,6.1,14,12.3,22.3,10.1c8.6-2.3,12.4-12.2,13.6-21
		c2.8-19.4-0.8-39.7-10.2-57c-0.2-0.3-0.3-0.6-0.5-0.9"/>
	<path class="st6" d="M3450.7,2695c-1.5-3.7-3.7-7.2-6.5-10.3C3446.3,2688.2,3448.4,2691.6,3450.7,2695z"/>
	<path class="st6" d="M3391.7,2727.5c9.5,11.2,20.6,21.1,32.9,29.1c4.9,3.2,10.7,6.2,16.2,4.3c6.9-2.3,9.2-10.7,10.5-17.8
		c2.9-15.9,5.4-33.8-0.6-48.1"/>
	<path class="st6" d="M3391.7,2727.5c-1.9-3-4.2-5.9-6.7-8.5C3387.1,2722,3389.3,2724.8,3391.7,2727.5z"/>
	<path class="st6" d="M3348.2,2755c-0.8,6.2,0.7,12.7,3.9,18.1c2.2,3.6,5.1,6.8,8.7,9.2c5.3,3.5,11.7,5,18,4.5
		c4.2-0.3,8.4-1.5,12.1-3.7c2.1-1.2,4.1-2.8,5.6-4.8c1.4-2,2.2-4.4,2.8-6.8c3.7-14.8,0.8-31.1-7.4-44"/>
	<path class="st6" d="M3776.4,2794.8c-1.3,5.5-1.3,11.3,0.4,16.7c4.3,14,18.8,24,33.4,23.1"/>
	<path class="st6" d="M3588.2,2660.9c-1.1,1.4-2.1,2.8-3.1,4.3c-10.8,15.2-18.8,32.5-23.6,50.6c-1.5,5.7-2.2,12.6,2.2,16.5
		c5.1,4.4,13,1.2,18.9-2.2c11.9-6.8,23.7-13.6,35.6-20.3c-12.2,17.2-23.7,34.8-34.6,52.9c-1.7,2.8-3.4,5.8-3.1,9
		c0.4,5.2,6,8.8,11.2,8.8c5.2,0,10.1-2.5,14.7-4.9c29.8-15.9,59.2-32.6,88.1-49.8c-31.2,27.3-51.9,66.3-57.1,107.4
		c-1,8.2-1.3,17.1,2.8,24.2c5.1,8.8,15.9,13.1,26,12.8c10.1-0.3,19.8-4.4,28.8-9c31.3-16,59.2-38.8,81.2-66.2"/>
	<path class="st6" d="M3854.3,2751.8c1.8,7.1,10.9,12,18.9,13.3c28.2,4.5,58.5-10.5,72-35.8c-0.7,25.1,24.2,47.8,49.2,44.7
		c25-3.1,43.6-31.2,36.7-55.4c20.1,19.1,46.8,31,74.4,33c13,1,27.6-0.8,36.1-10.7c5.8-6.7,7.7-15.9,8.9-24.7
		c3.4-26.1,1.8-52.9-4.7-78.5c12.2,9,31,3.3,40.2-8.8c9.3-12.1,11.1-28.2,10.7-43.4c-0.4-15.2-2.8-30.5-0.4-45.6
		c27.4,17.3,62.6,34.9,90.1,17.8c27.3-16.9,27.5-57.1,16.6-87.4c0,0,147.2,14.4,169.2-76.6"/>
	<path class="st6" d="M3854.3,2751.8c0-1.6,0-3.1-0.1-4.6C3853.8,2748.8,3853.9,2750.3,3854.3,2751.8z"/>
	<path class="st6" d="M3751.4,2696.6c-9.4,22.1-11.6,47.3-6.1,70.7c0.7,3.1,1.8,6.5,4.6,8c3.2,1.7,7.1,0.3,10.3-1.3
		c19.8-9.6,37.4-23.9,50.9-41.2c-2.9,12.2-5.7,25-2.1,36.9c3.5,12,15.9,22.3,27.9,18.9c5.9-1.7,10-5.7,12.6-11
		c3.7-7.3,4.8-16.9,4.8-25.8"/>
	<path class="st6" d="M1776.4,2507.3c-11,12-19.6,26.1-25.4,41.3c-7.1,18.3-10.1,38.1-8.6,57.7c0.3,3.4,0.7,6.9,2.4,9.9
		c3.9,6.8,13.6,8.4,21,5.7c7.4-2.8,13-8.8,18.4-14.6c-2.7,14.6-0.7,35.5,14.1,36.3c4.1,0.2,8-1.4,11.6-3.3
		c13.7-7.1,25.7-17.5,34.5-30.1c4.2,17.5,18.2,31.9,35.1,37.7c5.7,2,11.8,3,17.9,2.8c24.1-0.8,46.2-20.2,50.1-43.9
		c8.5,20.1,30.7,33.5,52.4,31.6c21.7-1.9,41.3-18.8,46.2-40.1c-1.1,11.9,8.3,22.7,19.3,27.3c11,4.6,23.4,4.3,35.3,4
		c7.8-0.2,17-1.2,21.1-7.9c2.4-3.9,2.3-8.6,2.9-13.1c3-20.4,30.5-38.6,50.9-35.7"/>
	<path class="st6" d="M2044.5,2684.7c-1.4,3.9-0.7,8.9,2,12.2c4.1,5.1,11.1,7.1,17.7,7.5c14.6,1,32.1-6.9,33.1-21.5
		c7.2,8.2,25,20.1,29.5,10.2c17.3-38.3,101.4,48.1,117.6-47.1"/>
	<path class="st6" d="M2044.5,2684.7c1.5-1.6,2.9-3.2,4.2-4.9C2046.7,2680.8,2045.3,2682.6,2044.5,2684.7z"/>
	<path class="st6" d="M1879.7,2647.9L1879.7,2647.9c0.5,9.9,4.7,53.7,19.5,71.1c6.5,7.5,18,10.9,27.7,12.8
		c14.9,3.1,28.7-9.3,35.7-22.8c7-13.5,10.1-29,18.9-41.3c-1.5,13-1.5,29.2,9.8,35.8c6.5,3.7,14.6,2.8,21.7,0.6
		c11.9-3.6,22.9-10.4,31.5-19.5"/>
	<path class="st6" d="M2758.4,2731.7c-3.8,17.6,6.2,37.7,23.1,44.3c12.7,5,27.8,1.7,38.4-6.8c5.1-4.1,9.1-9.3,11.3-15.4"/>
	<path class="st6" d="M2758.5,2731.7c0.6-1.9,1.2-3.8,1.8-5.7C2759.5,2727.8,2758.9,2729.7,2758.5,2731.7z"/>
	<path class="st6" d="M2758.5,2731.7C2758.5,2731.7,2758.5,2731.7,2758.5,2731.7"/>
	<path class="st6" d="M2714.1,2771.2c2.1,9.7,13.5,17.8,21.8,12.5c2.6-1.6,4.4-4.2,5.8-7c0.7-1.4,1.3-2.8,1.9-4.1
		c5.6-13.4,10.6-27,14.9-40.8"/>
	<path class="st6" d="M2714.1,2771.2c4.9-9,7.1-19.7,9-29.9c-5.2,8.9-10.6,18.6-9.2,28.8C2713.9,2770.4,2714,2770.8,2714.1,2771.2z"
		/>
	<path class="st6" d="M2664.4,2734.5c-0.7,10.4-0.4,21,0.9,31.4c0.7,5.4,1.7,11,4.9,15.4c8.3,11.5,27.4,9,37.3-1.1
		c2.6-2.7,4.8-5.7,6.5-9"/>
	<path class="st6" d="M2664.4,2734.5c3.6-4.5,5-10.4,1.7-15.2C2665.3,2724.3,2664.7,2729.4,2664.4,2734.5z"/>
	<path class="st6" d="M2543.8,2689.4c-1.1,7.4-0.9,14.8,1.8,21.8c5.1,12.9,23.5,20.9,33.2,11c3.8-3.9,5.3-9.4,6.6-14.7
		c3.7-15.1,6.6-30.4,8.9-45.8c5.2,21.8,14.7,42.6,27.9,60.7c6.8,9.3,15.8,18.6,27.3,19.3c5.7,0.3,11.4-2.8,14.9-7.1"/>
	<path class="st6" d="M2543.8,2689.4c2.1-6.2,3.6-12.5,4.6-18.9C2546.5,2676.6,2544.7,2683,2543.8,2689.4z"/>
	<path class="st6" d="M2485.4,2668.1c-0.7,18.1,4.6,36.5,15.1,51.3c3.1,4.4,7.2,8.7,12.5,9.3c7.2,0.8,13.1-5.4,17.2-11.5
		c5.8-8.7,10.4-18.1,13.6-28"/>
	<path class="st6" d="M2485.4,2668.1c0.8-5,1.5-9.9,2-14.9C2486.3,2658.1,2485.6,2663.1,2485.4,2668.1z"/>
	<path class="st6" d="M2426.1,2662.1c0.5,23.3,7.8,46.4,21.4,65.4c3.2,4.4,7.9,9.1,13.2,8c4.8-1,7.5-6.1,9.3-10.7
		c7.1-18.3,12.3-37.3,15.4-56.6"/>
	<path class="st6" d="M2426.1,2662.1c3.6-11.8,4.7-24.5,5.3-36.9C2427.6,2637.1,2425.9,2649.6,2426.1,2662.1z"/>
	<path class="st6" d="M2342.2,2666.5c0.6,3.3,1.5,6.5,2.7,9.6c6.1,15,21.4,26.4,37.6,25.9c16.8-0.5,31.3-13,38.8-28
		c1.9-3.9,3.5-7.9,4.7-12"/>
	<path class="st6" d="M2342.2,2666.5c5.7-11.2,7.1-24.4,7.2-37.1C2343,2640.5,2340.1,2653.9,2342.2,2666.5z"/>
	<path class="st6" d="M2211.7,2510.4c-0.7,0.6-1.4,1.3-2.1,1.9c-15.8,15-27.1,34.7-31.9,56c-0.4,1.6-0.7,3.2-1,4.8
		c-1.6,9.7-1.3,20,3.7,28.3c12.7,21.3,44.3,16.8,68,9.6c-7.2,10.7-13.9,26.6-4.1,34.9c7.5,6.4,19.3,2.6,26.8-3.7
		c7.5-6.4,13.2-15,21.9-19.6c-4.8,10.5-9.2,21.5-9.2,33.1c0,11.5,5.2,23.7,15.4,29.1c13.3,7,30.7-0.1,39.4-12.4
		c1.4-1.9,2.6-3.9,3.6-5.9"/>
	<path class="st6" d="M2680.6,2593c0.2,11.1,0.4,22.5,3.7,33.1c3.4,10.6,10.4,20.6,20.8,24.8c7.7,3.1,16.6,2.7,24.6,0.5
		c12.8-3.6,24.2-11.9,31.8-22.8c3.9-5.5,6.9-11.7,8.6-18.3"/>
	<path class="st6" d="M2742.3,2591c-4.7,2.3-3.8,9.3-1.5,14c4.7,9.6,12,17.7,20.8,23.6c7.9,5.3,17.1,9,26.5,10.5
		c9.3,1.5,19,1,28-1.9c19.1-6.1,33.9-22.5,40.1-41.4c0.1-0.1,0.1-0.3,0.1-0.4c2.9-9.1,3.8-18.9,2.1-28.4c1.8,10.2,3.9,21,10.6,28.9
		c6.7,7.9,19.8,11.4,27.6,4.6c8.8-7.8,5.5-22.2,9.7-33.3c20.9,10.4,47.2,13.9,67.1,1.7c14.7-9,23.7-25.4,27.6-42.3
		c3.9-16.8,3.2-34.3,2.5-51.6"/>
	<path class="st6" d="M3108,2571c-3.1,9.1-1.3,20.5,4.4,28.9c2.6,3.9,6.1,7.1,10.3,9.2c18.5,9.5,42.4,0.2,55.3-16.1
		c-6.4,8.8-3.3,22,4.7,29.4c7.9,7.4,19.3,9.9,30.2,10.1c30.6,0.5,60.9-16.8,76-43.4c-3.1,24.5,24.1,42.5,48.6,45.3
		c41.4,4.8,84.8-17,105.7-53.1"/>
	<path class="st6" d="M3108,2571c4.1-3.5,7.6-7.7,10.3-12.5C3113.2,2561.3,3109.8,2565.8,3108,2571z"/>
	<path class="st6" d="M3036.3,2498.8c-10.3,11-14.3,26.8-12.3,41.7c1.8,13.6,8.4,26.5,19.5,34.6c18.9,13.8,47.1,10.9,64.5-4.1"/>
	<path class="st6" d="M2549.1,2527.6c5,15,23.5,24.7,40.3,26.3c18.8,1.8,38.8-2.8,52.8-15.5c14-12.7,20.6-34.1,13-51.5
		c18.2,24.9,55.3,33.7,82.7,19.5"/>
	<path class="st6" d="M2549.1,2527.6c0-3-0.4-6-1.3-9C2547.7,2521.8,2548.2,2524.8,2549.1,2527.6z"/>
	<path class="st6" d="M2355.3,2532.4c-2,9,0.8,19.5,7.7,26c10.9,10.1,28.4,10.5,41.6,3.9c13.3-6.6,22.9-19,29.6-32.2
		c-4.5,22.2,21.2,38.7,43.7,41.8c17.3,2.4,35.8,0.9,50.6-8.5c12.1-7.7,20.7-21.8,20.7-35.8"/>
	<path class="st6" d="M2355.3,2532.4c3.1-4.1,5.8-8.4,8.2-12.9C2359.1,2522.6,2356.4,2527.3,2355.3,2532.4z"/>
	<path class="st6" d="M2215.3,2445.7c-2.1,8.5-3.7,17.1-5,25.8c-0.5,3.8-1,7.5-1.3,11.3c-0.9,9.8-0.9,19.8,0.7,29.4
		c1.2,7.4,3.3,14.7,6.7,21.5c13.5,27.2,46.4,42,76.5,37.8c25-3.5,47.4-18.7,62.5-39.1"/>
	<path class="st6" d="M2110.2,2420.5c-5,22.8,12.4,45.8,33.9,55.1c20.1,8.7,42.8,8.4,64.9,7.3c1.4-0.1,2.9-0.1,4.3-0.2"/>
	<path class="st6" d="M3446,2392.8c0,0.3,0,0.7,0,1c0.1,41.7,44.6,73,86.5,72.7c42.2-0.3,80.6-23.7,114.5-49
		c-11,10.1-4.6,30.5,9,36.8c13.5,6.3,29.8,1.9,42.5-5.9c12.7-7.8,23.3-18.7,35.8-26.8c4.4,22.6,31.8,31.4,54.8,33.6
		c34.4,3.3,69.4,1.4,103.3-5.5"/>
	<path class="st6" d="M3488.6,2640.5c5,5,10.5,9.4,16.4,13c23.5,14.6,53.4,19,80,11.6c6.1-1.7,12.1-4,17.8-7"/>
	<path class="st6" d="M3488.1,2666.6c4.7-2.4,9.1-5.5,13-9.1c1.4-1.3,2.7-2.6,3.9-4c2.9-3.2,5.3-6.8,7.4-10.5"/>
	<path class="st6" d="M3810.2,2834.6c10.4-1.1,16.9-2.5,26.1-8.8c9.2-6.3,16.9-15.6,18.8-26.6c1.3-7.6-0.8-15.8-5.6-21.6
		c-2.2-2.7-4.9-4.8-8.1-6.1"/>
	<path class="st6" d="M1770.2,2548.8c-6.4,0.1-12.8,0.1-19.2-0.2c-18.9-0.9-37.6-4.4-53.9-13.6c-21.9-12.2-38.5-37-34.5-61.8
		c-30.5,6.1-62.5,12.1-92.4,3.4c-29.9-8.7-56.5-37.3-51.8-68.1c-4.3,16.9-24.3,19.4-41.1,24.2c-44.6,12.6-83-52.9-13-90.9"/>
	<path class="st6" d="M2856.8,2595.5c18.3,37.8,33.3,73.7,37.8,95.4c20.7-43.9,48.1-102.4,128.9-150.3"/>
	<path class="st6" d="M2788.1,2639.1c14.2,37.9,25.7,81.3,31.9,130.1c1.6,12.5,2.8,25.4,3.6,38.6c1.2,19.9,2.5,41.8,3.8,64.9"/>
	<path class="st6" d="M2936.3,2923.3c0,0.1,0.1,0.3,0.2,0.5"/>
	<path class="st6" d="M2936.2,2923c0,0,0,0.1,0,0.1"/>
	<path class="st6" d="M2936.2,2922.9C2936.2,2922.9,2936.2,2922.9,2936.2,2922.9C2936.2,2922.9,2936.2,2922.9,2936.2,2922.9"/>
	<path class="st6" d="M2936.3,2923.2c0,0,0-0.1,0-0.1c0-0.1,0-0.1,0-0.1c0,0,0,0,0-0.1"/>
	<path class="st6" d="M2936.3,2923.2C2936.3,2923.2,2936.3,2923.3,2936.3,2923.2"/>
	<path class="st6" d="M2936.5,2924c0-0.1,0-0.2-0.1-0.2c-0.1-0.2-0.1-0.4-0.2-0.5"/>
	<path class="st6" d="M2936.5,2924c0,0.1,0,0.2,0.1,0.3c0,0,0,0.1,0,0.1"/>
	<path class="st6" d="M2894.9,2915.6c0.3-0.9,0.4-1.8,0.5-2.7C2895.2,2913.8,2895.1,2914.7,2894.9,2915.6z"/>
	<path class="st6" d="M2743,2763.9c-0.7,4.4-1.2,8.7-1.4,12.8c-1.6,33.7,13.8,55.4,21.7,65.2c15.8-7,32.8-39,32.8-39s-14,62,12,89
		c18.6-7.5,19.1-17.8,19.1-18.9c0-0.1,0-0.1,0-0.1"/>
</g>
<g>
	<path class="st3" d="M2888.8,3382.5c16.1-4.3,33.4,5.3,43,18.9s13.1,30.6,16,47c3.7,20.9,6.3,41.9,9.4,62.9
		c6.4,44.6,47.9,221.3-42.1,255.2c45.5-65.6,50-80.9,19.9-218.1c-26.2-119.8-19.2-105.8-32.9-124
		C2888.5,3406.1,2888.8,3382.5,2888.8,3382.5z"/>
</g>
<path class="st3" d="M2913.1,3263.6c3.3,20.3,0.4,43.1-13.8,58c-12.6,13.3-31.7,18.1-49.9,20.3c-1-24.5-3-70.6-5.5-127.5
	c18.6-6.7,41.2-1,54.3,14C2906.7,3238.1,2911.1,3250.8,2913.1,3263.6z"/>
<g>
	<path class="st3" d="M2936.3,2923.2c0-0.1-0.1-0.2-0.1-0.3C2936.2,2923,2936.3,2923.1,2936.3,2923.2z M2936.3,2923.3
		c0.1,0.2,0.1,0.4,0.2,0.8C2936.4,2923.7,2936.4,2923.5,2936.3,2923.3z M2819.9,2769.2c-6.1-48.8-17.7-92.2-31.9-130.1
		c9.3,1.5,19,1,28-1.9c19.1-6.1,33.9-22.5,40.1-41.4c0.1-0.1,0.1-0.3,0.1-0.4l0.5,0.1c18.3,37.8,33.3,73.7,37.8,95.4
		c20.7-43.9,48.1-102.4,128.9-150.3l0.5-0.1c1.8,13.6,8.4,26.5,19.5,34.6c18.9,13.8,47.1,10.9,64.5-4.1c-3.1,9.1-1.3,20.5,4.4,28.9
		c-1.2,0.4-92.7,30.4-135.2,121.9c-12.9,27.8-4.8,71.8,5.6,156.5c1.5,12.6,3.1,26,4.7,40.4l-1,0.1c0,0,1.8,16.1-11.3,45.9
		c-27.1-7-36.6-33.9-38.6-40.5c2.4,9.3,14.3,60.8-7.8,92.5c-29.6-14.6-40.1-68-33.9-101.3c0.3-0.9,0.4-1.8,0.5-2.7
		c-0.2,0.9-0.4,1.8-0.5,2.7c-5.4,18.3-46.3,47.5-59.3,52.3c-2.6-5-3.6-11.3-4.1-15.9c-1.4-27.3-2.8-54-4.2-79c0-0.1,0-0.1,0-0.1
		c-1.3-23.2-2.6-45-3.8-64.9C2822.7,2794.7,2821.5,2781.8,2819.9,2769.2z"/>
</g>
<path class="st7" d="M2333.7,3507.8l75.5,47.8c-14.9,31.9-43.6,32.3-51.7,26.8c-8-5.5-9-6.3-31.4-22.3c-22.4-16.1-11-38.9,0-55.9
	L2333.7,3507.8z"/>
<path class="st8" d="M2487,3732.7c-0.6,6.2-0.8,12.3-0.8,18.3h0l-32-4.7c-10.2-1-17.3-14.9-15.7-31.1c1.6-16.2,11.1-28.4,21.4-27.5
	l36.2,5.1C2491.5,3704.9,2488.4,3718.4,2487,3732.7z"/>
<path class="st1" d="M2459.8,3687.7l36.2,5.1c4.5-12.1,10.3-22.8,17.1-31.6c-2-5.8-4.4-11.2-7.1-16.2c-10.1-18.6-25-30.8-42.4-32.5
	l-63.8-10.5c-36.5-3.5-70.6,40.3-76.1,97.9c-5.6,57.6,19.5,107.1,56,110.6l58.3,9.6l5.5,0.9c18.4,1.8,36.1-8.4,49.9-26.4
	c-4.4-13-6.9-27.5-7.1-43.5h0l-32-4.7c-10.2-1-17.3-14.9-15.7-31.1C2440,3699.1,2449.6,3686.8,2459.8,3687.7z"/>
<path class="st9" d="M2622.5,3716.7c18.3-0.1,21.9,15.9,20.8,33.8c-1.2,19.8-10.8,32.9-27,30.6c-11.2-1.6-19-16.4-17.3-34.2
	C2600.7,3729.1,2611.2,3716.7,2622.5,3716.7z"/>
<path class="st7" d="M2629.5,3644.1l-66-9.8c-18.6-1.8-36.5,8.6-50.4,26.8c-6.8,8.9-12.6,19.6-17.1,31.6c-4.5,12.1-7.6,25.6-9,39.9
	c-0.6,6.2-0.8,12.3-0.8,18.3c0.2,15.8,2.8,30.6,7.1,43.6c9.5,27.8,27.5,47.1,49.9,49.3l66,9.8c31.2,3,60.6-28.4,72.1-73.4
	c2-7.9,3.5-16.2,4.3-24.9C2691.4,3697.4,2666.2,3647.7,2629.5,3644.1z"/>
<path class="st1" d="M2750.3,3736.6c3,0.1,5.9,0.2,8.7,0.4c-4.9,3.4-10,6.8-15.1,10.1C2744.1,3746.9,2747.2,3743.7,2750.3,3736.6z"
	/>
<path class="st1" d="M2750.3,3736.6c-3.1,7.1-6.2,10.3-6.4,10.5c0,0,0,0,0,0c-13.5,8.6-27.7,16.6-42.6,23.9
	c4.3-16.8,13.8-32.9,34.5-34.2C2740.7,3736.6,2745.6,3736.5,2750.3,3736.6z"/>
<path class="st1" d="M2836.2,3764.9c8.1,7.7,16.4,20,16.5,39.7c0,7.7-1.2,16.6-4.2,26.7c-15.6,52-57.8,42.7-64.8,40.9
	s-46.2-10.3-50-11.1c-3.8-0.8-27.6-7-34.7-37.9c20.1,6,74.6,17.1,74.6,17.1l14.1-6.8c0,0-1.3,30.4,25.1,25.6
	c26.4-4.8,32.4-84.7,3.5-78.1c-28.9,6.6-27.4,39.9-27.4,39.9l-15.8,6.1l-74.8-16.6c0,0-2-20.2,2.9-39.4
	c14.9-7.3,29.2-15.3,42.6-23.9c0,0,0,0,0,0c5.1-3.3,10.2-6.6,15.1-10.1c33,2.5,57.5,13.9,64.6,18.4
	C2826.2,3757.2,2831.1,3760.1,2836.2,3764.9z"/>
<path class="st1" d="M2852.7,3755.7c17.1-3.2,40.2,8.9,23.9,37.9c-7.7,4.4-17.3,8.4-23.9,11h0c-0.1-19.6-8.5-32-16.5-39.7
	C2842.1,3761.8,2847.6,3758.7,2852.7,3755.7z"/>
<path class="st1" d="M2880.9,3736.5c12.1-4.7,40.7,2.6,35.3,25v0c-9.6,9.9-21.3,19.8-35.7,29.6c-1.2,0.8-2.6,1.6-3.9,2.4
	c16.3-28.9-6.8-41.1-23.9-37.9C2863.7,3749.2,2873.1,3743,2880.9,3736.5z"/>
<path class="st1" d="M2900.1,3715.2c12.9-7.5,41.6-4.3,39.8,14.9v0c-5.8,10.4-13.5,20.9-23.8,31.4c5.4-22.5-23.2-29.7-35.3-25
	C2888.9,3729.9,2895.3,3723,2900.1,3715.2z"/>
<path class="st1" d="M2947.1,3715.1c-1.9,5-4.3,10-7.1,15.1c1.8-19.3-26.9-22.4-39.8-14.9c5.5-8.9,9.1-18.8,10.6-30.6
	c3.8-4.5,40.1-18.6,43.9-2h0C2953.7,3693.1,2951.4,3704,2947.1,3715.1z"/>
<path class="st1" d="M2910.5,3647.8c14.3,0.2,41.9-1,41.2-11.9h0c2.6,14.3,4.5,30.1,3,46.8h0c-3.8-16.6-40.2-2.5-43.9,2
	C2912.2,3674,2912.1,3661.9,2910.5,3647.8z"/>
<path class="st1" d="M2951.7,3635.8c0.8,10.9-26.9,12.1-41.2,11.9c-1.2-11-3.3-23.2-6.2-36.9l0.4-0.1c13.4,4.8,41.3-2.4,40-10.8
	c0.2,1.1,0.4,2.2,0.5,3.2C2946.9,3612.9,2949.6,3623.9,2951.7,3635.8L2951.7,3635.8z"/>
<path class="st1" d="M2944.7,3600c1.4,8.4-26.6,15.6-40,10.8l-0.4,0.1c-0.8-4-1.8-8.1-2.8-12.3c-2.5-10.6-4.8-20.8-7-30.6
	c10.7,6.9,44.2,2.7,43.3-9.7C2940.8,3575.2,2943,3589.9,2944.7,3600z"/>
<path class="st1" d="M2937.9,3558.2c0.9,12.4-32.6,16.7-43.3,9.7c-0.7-3.2-1.4-6.3-2.1-9.4c2.7-9.3,4.9-18.7,6.6-28.2
	c14.3-0.8,30.5-9.6,29.8-19.7C2932.3,3527.1,2935.3,3543.5,2937.9,3558.2C2937.9,3558.2,2937.9,3558.2,2937.9,3558.2z"/>
<path class="st1" d="M2885.6,3528c3.7,1.9,8.5,2.6,13.4,2.3c-1.7,9.5-3.9,18.9-6.6,28.2C2890.1,3547.8,2887.8,3537.6,2885.6,3528z"
	/>
<path class="st1" d="M2928.8,3510.6c0.7,10.1-15.4,18.9-29.8,19.7c1.6-9.2,2.8-18.4,3.5-27.8c0.6-7.5,1-14.7,1.4-21.5
	c8.7-3.3,15.1-8.3,14.6-12.3C2922.3,3482.1,2925.8,3496.4,2928.8,3510.6C2928.8,3510.6,2928.8,3510.6,2928.8,3510.6z"/>
<path class="st1" d="M2903.9,3481c-0.4,6.8-0.8,14-1.4,21.5c-0.7,9.3-1.9,18.6-3.5,27.8c-4.9,0.3-9.7-0.4-13.4-2.3
	c-3.9-17.2-7.5-32.5-11.1-45.7C2882.9,3486,2894.7,3484.5,2903.9,3481z"/>
<path class="st1" d="M2918.5,3468.7c0.6,4-5.9,9-14.6,12.3c0.7-13.2,0.9-25.2,0.7-35.9c2.7-3,3.9-6.1,2.8-8.8
	C2911.4,3446.1,2915.1,3457.1,2918.5,3468.7z"/>
<path class="st1" d="M2904.6,3445.2c0.2,10.7,0,22.6-0.7,35.9c-9.2,3.5-21,5-29.4,1.3c-2.3-8.6-4.7-16.2-7.1-22.8
	c4.3-0.1,8.4-1.4,12.1-3.6C2890.2,3455.2,2899.8,3450.4,2904.6,3445.2z"/>
<path class="st9" d="M2865.5,3454.4c4.7,1.5,9.5,1.9,14.1,1.6c-3.7,2.2-7.8,3.5-12.1,3.6C2866.8,3457.7,2866.2,3456,2865.5,3454.4
	L2865.5,3454.4z"/>
<path class="st8" d="M2866.7,3378.8c16.7,0,30.3,17,31.1,38.3c-7.8-12.7-16.6-20-26.6-18.9c-28.7,3.3-23,30.5-16.7,37.1
	c4,4.2,7.6,10.6,11,19c0.7,1.6,1.3,3.4,2,5.1c-0.2,0-0.5,0-0.7,0c-17.2,0-31.1-18.1-31.1-40.4S2849.6,3378.8,2866.7,3378.8z"/>
<path class="st1" d="M2727.9,3403c1.1,11,4.4,22.1,8.1,31c-7.7,2.1-14.9,3.6-21.7,4.5v0c20.6-6.2,9.1-33.1-4.2-31.9
	C2715.5,3405.9,2721.4,3404.6,2727.9,3403z"/>
<path class="st1" d="M2734.2,3401.5c20-4.4,24.2,24.7,7.2,31.1c0,0,0,0,0,0c-1.8,0.6-3.6,1.1-5.4,1.6c-3.7-8.9-7-20-8.1-31
	C2729.9,3402.5,2732,3402,2734.2,3401.5z"/>
<path class="st1" d="M2710.1,3406.7c13.3-1.2,24.8,25.7,4.2,31.9v0c-5.8,0.8-11.2,1.1-16.4,1.1c-1.7-11.9-2.9-22.5-3.3-31.9
	c4.5,0.2,9.4-0.2,14.6-1c0,0,0,0,0.1,0c0.2,0,0.5-0.1,0.7-0.1C2710,3406.7,2710,3406.7,2710.1,3406.7z"/>
<path class="st1" d="M2694.6,3407.8c0.4,9.4,1.6,20,3.3,31.9c-11.6-0.1-21.7-2-30.6-5.6c22.1,7.8,28-23.2,16.5-27.9
	C2687.2,3407.2,2690.8,3407.7,2694.6,3407.8z"/>
<path class="st1" d="M2683.7,3406.2c11.5,4.7,5.6,35.7-16.5,27.9c-13.5-5.4-24.4-14.4-33.5-25.8c7.6,8.5,35.8-5,26.5-18.7
	C2667.7,3398.6,2675.2,3403.8,2683.7,3406.2z"/>
<path class="st1" d="M2660.3,3389.5c9.2,13.7-19,27.2-26.5,18.7c-5.9-7.3-11.1-15.7-15.8-24.6c14.2,8.9,35.2-3.1,30.3-12.8
	C2652.3,3378.4,2656.3,3384.6,2660.3,3389.5C2660.3,3389.5,2660.3,3389.5,2660.3,3389.5z"/>
<path class="st1" d="M2648.3,3370.8c4.9,9.7-16,21.7-30.3,12.8c-2.6-4.8-5-9.9-7.4-15.1l29.2-15.2
	C2642.7,3359.9,2645.5,3365.7,2648.3,3370.8z"/>
<path class="st10" d="M2768.2,3355.2L2768.2,3355.2c-35.2,1.2-42.7,24.4-40.4,47.9c-6.4,1.6-12.3,2.8-17.8,3.7c-0.1,0-0.1,0-0.1,0
	c-0.2,0-0.5,0.1-0.7,0.1c0,0,0,0-0.1,0c-5.2,0.8-10.1,1.1-14.6,1c-1.3-31.4,6.7-48.9,37-51.2
	C2742.7,3355.7,2755.3,3355.2,2768.2,3355.2z"/>
<path class="st10" d="M2850.2,3360.3c2,0.2,4,0.4,5.9,0.7c15.9,2.5,27.4,8.9,35.2,21c6.8,10.6,10.8,25.6,12.5,46.1
	c-1.9-4.1-3.9-7.8-6-11.1c-0.8-21.3-14.4-38.3-31.1-38.3c-17.2,0-31.1,18.1-31.1,40.4s13.9,40.4,31.1,40.4c0.2,0,0.5,0,0.7,0
	c2.4,6.6,4.8,14.2,7.1,22.8c3.6,13.2,7.2,28.5,11.1,45.7c2.2,9.6,4.4,19.8,6.8,30.5c-19.8,68.7-66.2,131.4-133.5,178.5
	c-2.8-0.2-5.8-0.4-8.7-0.4c3.2-7.2,6.3-18.2,6.6-34c1.2-73-4.9-92.3-161.9-87.5v0c109.9-33.5,111.7-120,105.3-160.1
	c-0.9-5.3-1.6-10.3-2.3-15.2c5.2,0,10.6-0.3,16.4-1.1c6.8-0.9,14-2.4,21.7-4.5c1.8,4.5,3.8,8.4,5.6,11.5c13.7,0,57,2.3,57,2.3
	s-29.7-86,33.3-88C2838.5,3359.7,2844.6,3359.8,2850.2,3360.3z M2837.9,3584.2c0,0,2.7-4,3.7-6.7c-4.7-30-31-25.7-31-25.7l-5,9.7
	C2828.5,3558.2,2837.9,3584.2,2837.9,3584.2z M2825.9,3617.2c2.7-29.3-29.7-33-29.7-33l-5.6,6.7c30.1,3.3,29.6,34.7,29.6,34.7
	S2822.2,3623.9,2825.9,3617.2z M2793.5,3644.9c6-29.7-17.3-36.7-17.3-36.7l-8,6.1c21.3,1.1,18.7,36.9,18.7,36.9
	S2790.5,3647.6,2793.5,3644.9z M2783.4,3519.6c4-24.7-5.6-46.9-21.6-49.5c-16-2.6-32.2,15.3-36.2,40c-4,24.7,5.6,46.9,21.6,49.5
	C2763.2,3562.2,2779.4,3544.3,2783.4,3519.6z"/>
<g>
	
		<ellipse transform="matrix(0.1609 -0.987 0.987 0.1609 -1157.6306 5668.1929)" class="st11" cx="2754.6" cy="3514.9" rx="45.3" ry="29.3"/>
	<g>
		<path class="st12" d="M2780.6,3518.8c-2.4,13.8-9,30.5-22.9,36.5c-13.3,5.7-23.7-5.5-27.4-17.3c-4.8-15.2-2.6-33.1,5-47
			c5.7-10.5,17.8-22.7,30.7-16.5C2781.1,3481.9,2782.7,3504.4,2780.6,3518.8c-0.6,3.8,5.2,5.4,5.8,1.6c2.5-16.4,0.7-37.7-13.6-48.6
			c-12.9-9.9-28.6-3-37.7,8.5c-11.6,14.7-15.7,35.7-12,53.9c2.9,14.2,13,30.2,29.5,28.6c20-2,30.7-25.1,33.8-42.4
			C2787,3516.6,2781.2,3515,2780.6,3518.8z"/>
	</g>
</g>
<path class="st8" d="M2741.4,3432.5c17-6.4,12.9-35.5-7.2-31.1c-2.2,0.6-4.3,1.1-6.3,1.6c-2.4-23.5,5.2-46.7,40.4-47.8v-0.1
	c32.1-0.2,65.7,1.7,82,4.6c0,0.2,0,0.4,0,0.6c-5.6-0.5-11.7-0.7-18.3-0.4c-63,2-33.3,88-33.3,88s-43.3-2.3-57-2.3
	c-1.8-3.1-3.7-7-5.6-11.5C2737.7,3433.6,2739.5,3433.1,2741.4,3432.5C2741.3,3432.5,2741.4,3432.5,2741.4,3432.5z"/>
<path class="st8" d="M2594.9,3615c157.1-4.8,163.2,14.5,161.9,87.5c-0.3,15.8-3.5,26.9-6.6,34c-4.7-0.1-9.6,0-14.5,0.3
	c-20.7,1.3-30.2,17.4-34.5,34.2c-6.5,3.2-13.1,6.2-19.8,9.1c2-7.9,3.5-16.2,4.3-24.9c5.6-57.8-19.6-107.6-56.2-111.1l-66-9.8
	c-18.5-1.8-36.5,8.6-50.4,26.8c-2-5.8-4.4-11.2-7.1-16.2c0,0,9.5-16.1,37.2-19.4C2562.7,3623.2,2579.8,3619.6,2594.9,3615
	L2594.9,3615z"/>
<g>
	<path class="st13" d="M2841.5,3577.6c-1,2.7-3.7,6.7-3.7,6.7s-9.3-26-32.3-22.7l5-9.7C2810.5,3551.9,2836.9,3547.6,2841.5,3577.6z"
		/>
	<path class="st13" d="M2796.2,3584.2c0,0,32.3,3.7,29.7,33c-3.7,6.7-5.7,8.3-5.7,8.3s0.5-31.3-29.6-34.7L2796.2,3584.2z"/>
	<path class="st13" d="M2776.2,3608.2c0,0,23.3,7,17.3,36.7c-3,2.7-6.7,6.3-6.7,6.3s2.7-35.8-18.7-36.9L2776.2,3608.2z"/>
</g>
<g>
	<path class="st14" d="M2610.6,3368.6c24.7,53.6,57.7,93,149,57.6c6.7-3,8.7,0.7,8.7,0.7"/>
	<path class="st14" d="M2639.8,3353.4c29.5,66.5,50.8,59.5,109.4,44.2c4-1.3,5.3-5.7,5.3-5.7"/>
	<path class="st14" d="M2618,3383.7c14.2,8.9,35.2-3.1,30.3-12.8"/>
	<path class="st14" d="M2633.8,3408.3c7.6,8.5,35.8-5,26.5-18.7"/>
	<path class="st14" d="M2667.3,3434.1c22.1,7.8,28-23.2,16.5-27.9"/>
	<path class="st14" d="M2709.2,3406.8c13.6-2.6,26.2,25.4,5.1,31.7"/>
	<path class="st14" d="M2734,3401.5c20.2-4.6,24.4,24.7,7.3,31"/>
</g>
<path class="st8" d="M2653.3,3752.1c2.9-29.5-10-54.9-28.7-56.7c-18.7-1.8-36.2,20.7-39,50.2c-2.8,29.5,10,54.9,28.7,56.7
	C2632.9,3804.1,2650.4,3781.6,2653.3,3752.1z"/>
<g>
	<path class="st1" d="M2643.3,3750.4c-1.3,19.8-10.8,32.9-27,30.6c-11.2-1.6-19-16.4-17.3-34.2s12.2-30.2,23.5-30.2
		C2640.8,3716.6,2644.5,3732.6,2643.3,3750.4z"/>
</g>
<g>
	<g>
		<g>
			<path class="st15" d="M2557.2,3677.6c6.6-0.5,15.2,0.1,20,5.3c2.6,2.8,6.9-1.4,4.2-4.2c-5.8-6.3-16-7.6-24.2-7
				C2553.4,3671.9,2553.3,3677.9,2557.2,3677.6L2557.2,3677.6z"/>
		</g>
	</g>
	<g>
		<g>
			<path class="st15" d="M2575.6,3713.3c-5.4-7.2-20.1-10.1-28.5-7.4c-3.7,1.2-2.1,7,1.6,5.8c5.5-1.8,18-0.3,21.7,4.6
				C2572.7,3719.3,2577.9,3716.3,2575.6,3713.3L2575.6,3713.3z"/>
		</g>
	</g>
	<g>
		<g>
			<path class="st15" d="M2570,3746.1c-7.7-1.5-16.1-0.8-23.9-0.2c-3.8,0.3-3.9,6.3,0,6c7.2-0.5,15.2-1.4,22.3,0
				C2572.2,3752.6,2573.8,3746.8,2570,3746.1L2570,3746.1z"/>
		</g>
	</g>
	<g>
		<g>
			<path class="st15" d="M2574.5,3777.2c-7.6,1.9-16.1,2.6-23.8,1.2c-3.8-0.7-5.4,5.1-1.6,5.8c8.8,1.5,18.3,0.9,27-1.2
				C2579.8,3782,2578.2,3776.2,2574.5,3777.2L2574.5,3777.2z"/>
		</g>
	</g>
	<g>
		<g>
			<path class="st15" d="M2587.6,3810.6c-6,4-13.2,5.7-20.3,5.1c-3.9-0.3-3.8,5.7,0,6c8.1,0.6,16.6-1.4,23.4-5.9
				C2593.8,3813.7,2590.8,3808.5,2587.6,3810.6L2587.6,3810.6z"/>
		</g>
	</g>
	<g>
		<g>
			<path class="st15" d="M2618.6,3820.7c-4.5,8.1-12.5,14.9-21.7,16.7c-3.8,0.7-2.2,6.5,1.6,5.8c10.7-2.1,20.1-10.1,25.3-19.5
				C2625.6,3820.4,2620.4,3817.4,2618.6,3820.7L2618.6,3820.7z"/>
		</g>
	</g>
	<g>
		<g>
			<path class="st15" d="M2584.6,3653c6.9,0.6,15.9,1.4,20.5,7.3c2.3,3,7.5,0,5.2-3c-6.1-8-16.2-9.5-25.7-10.3
				C2580.7,3646.7,2580.7,3652.7,2584.6,3653L2584.6,3653z"/>
		</g>
	</g>
	<g>
		<g>
			<path class="st15" d="M2451.3,3637.9c-8-10.7-23.1-18.3-36.5-16.4c-3.8,0.5-2.2,6.3,1.6,5.8c10.4-1.4,23.6,5.5,29.8,13.7
				C2448.4,3644,2453.6,3641,2451.3,3637.9L2451.3,3637.9z"/>
		</g>
	</g>
	<g>
		<g>
			<path class="st15" d="M2440.9,3659c-7-9.3-24.2-14.9-35.5-11.9c-3.7,1-2.2,6.8,1.6,5.8c8.4-2.2,23.4,2.1,28.7,9.2
				C2438,3665.1,2443.2,3662.1,2440.9,3659L2440.9,3659z"/>
		</g>
	</g>
	<g>
		<g>
			<path class="st15" d="M2421.9,3691.5c-10.6-4.2-25.3-7.1-36.5-3.8c-3.7,1.1-2.1,6.9,1.6,5.8c10.3-3,23.6-0.1,33.3,3.8
				C2423.9,3698.8,2425.4,3693,2421.9,3691.5L2421.9,3691.5z"/>
		</g>
	</g>
	<g>
		<g>
			<path class="st15" d="M2416.8,3726.2c-7.1,1.6-14.3,2.5-21.4,3.3c-4,0.4-11.1,2.2-14.6,0.9c-3.7-1.3-5.2,4.5-1.6,5.8
				c4.6,1.6,11.6-0.2,16.2-0.7c7.7-0.9,15.4-1.9,23-3.6C2422.1,3731.1,2420.5,3725.4,2416.8,3726.2L2416.8,3726.2z"/>
		</g>
	</g>
	<g>
		<g>
			<path class="st15" d="M2422.3,3759.1c-10.1,6.1-21.6,9.3-33.4,9.1c-3.9,0-3.9,6,0,6c12.8,0.1,25.5-3.3,36.4-10
				C2428.7,3762.3,2425.6,3757.1,2422.3,3759.1L2422.3,3759.1z"/>
		</g>
	</g>
	<g>
		<g>
			<path class="st15" d="M2435.7,3791.1c-6,9.3-15.2,12-25.9,11.1c-3.8-0.3-3.8,5.7,0,6c12.9,1.2,23.9-3,31.1-14
				C2443,3790.9,2437.8,3787.9,2435.7,3791.1L2435.7,3791.1z"/>
		</g>
	</g>
</g>
<g>
	<path class="st14" d="M2855.1,3803.6c7.7-3.1,18-7.6,25.4-12.4c102.3-70.3,72.3-143,64.7-188c-7.7-45-29.4-210.2-74-205
		c-28.7,3.3-22.9,30.5-16.7,37.1c17.3,18.2,27.4,79.5,47,163.2c23.8,102,6.4,127.3-63,165.1"/>
	<path class="st14" d="M2865.5,3454.4c21.4,6.8,45.8-8.7,41.9-18"/>
	<path class="st14" d="M2874.6,3482.3c16.1,7.2,45.1-5.2,43.9-13.6"/>
	<path class="st14" d="M2885.6,3528c14.6,7.5,44.1-3.8,43.2-17.4"/>
	<path class="st14" d="M2894.6,3567.9c10.7,7,44.3,2.7,43.3-9.7"/>
	<path class="st14" d="M2904.7,3610.8c13.4,4.8,41.3-2.4,40-10.8"/>
	<path class="st14" d="M2910.6,3647.8c14.3,0.2,42-1,41.2-12"/>
	<path class="st14" d="M2910.8,3684.6c3.8-4.5,40.1-18.6,43.9-2"/>
	<path class="st14" d="M2900.1,3715.2c12.9-7.5,41.7-4.3,39.8,14.9"/>
	<path class="st14" d="M2880.9,3736.6c12-4.7,40.8,2.5,35.3,25"/>
	<path class="st14" d="M2852.7,3755.7c17.1-3.2,40.2,9,23.9,37.9"/>
</g>
<g>
	<path class="st16" d="M1861.4,3724.1c2,12.4,1.2,25.2-2.3,37.3"/>
	<path class="st16" d="M1878.1,3717.6c1.6,13.8,2.5,27.7,2.6,41.6"/>
	<path class="st16" d="M1895.4,3715.8c4.1,13.8,6.8,27.9,8.1,42.2"/>
	<path class="st16" d="M1915.1,3704.6c2.9,6.4,4.6,13.2,5.1,20.2"/>
	<path class="st16" d="M1925.6,3703.1c3.4,10.3,6.8,20.6,10.2,30.9"/>
	<path class="st16" d="M1943.2,3698.1c2.1,9.2,4.1,18.4,6.2,27.6"/>
	<path class="st16" d="M1962.4,3685c0.2,11.1,1.2,22.2,3,33.1"/>
	<path class="st16" d="M1981.4,3678.2c0.5,21.1,1,42.2,1.4,63.3"/>
	<path class="st16" d="M2000.3,3681.6c-3.8,23.9-4.5,48.3-2.1,72.3"/>
	<path class="st16" d="M2009.8,3701c5.9,10.2,10.7,21.1,14.1,32.5"/>
	<path class="st16" d="M2026.1,3674.5c6.1,10.6,8.9,22.9,8.1,35.1"/>
	<path class="st16" d="M2041.3,3668.7c5.2,7.7,7.7,17.1,7,26.3"/>
	<path class="st16" d="M2048.6,3660.1c1.7-1.6,4.2,0.8,5.2,3c6.9,14.8,10.3,31.1,9.8,47.4"/>
	<path class="st16" d="M2067.1,3661.4c2.5,1.2,3.5,4.1,4.1,6.8c3.8,15.2,4.5,31.2,2.1,46.8"/>
	<path class="st16" d="M2088.8,3660c2,2,2.3,5.1,2.4,8c0.8,20.2,0,40.5-2.5,60.6"/>
	<path class="st16" d="M2108.6,3648.8c2.6,3.1,3,7.5,3.1,11.6c0.3,12-0.9,23.9-3.5,35.6"/>
	<path class="st16" d="M2125.6,3653.8c4.8,13.5,5.8,28.4,2.8,42.4"/>
	<path class="st16" d="M2138.4,3661.6c2.8,3,2.8,7.6,2.6,11.7c-0.5,11.3-1.4,22.6-2.7,33.9"/>
	<path class="st16" d="M2169.1,3648.4c-0.5-0.1,0-1,0.5-0.8c0.5,0.2,0.5,0.8,0.5,1.4c-0.8,24.1-4.8,48.1-11.9,71.2"/>
	<path class="st16" d="M2185.3,3670.5c-3.1,12.4-6.2,24.7-9.3,37.1"/>
	<path class="st16" d="M2192.2,3679.8c0.1,6.3-1.1,12.6-3.4,18.4"/>
	<path class="st16" d="M2207.5,3665.5c-0.4,11.5-1.4,23-2.9,34.4"/>
	<path class="st16" d="M2219.7,3621c-0.4-0.5-0.9-1-1.3-1.4c8,27,8.2,56.3,0.5,83.4"/>
	<path class="st16" d="M2244,3622.4c5.1,16.7,6.6,34.5,4.2,51.9"/>
	<path class="st16" d="M2260,3635c2.1,11.4,2.6,23.1,1.4,34.6"/>
	<path class="st16" d="M2271.4,3637.3c0.3,9.8,0,19.6-0.9,29.3"/>
	<path class="st16" d="M2288.6,3631.9c-1.1,16.4-3.8,32.7-8,48.5"/>
	<path class="st16" d="M2299.7,3646.1c-3,16.1-6.6,32-10.8,47.8"/>
	<path class="st16" d="M2309,3652.4c-1.6,8.8-3.8,17.4-6.6,25.9"/>
	<path class="st16" d="M2321.6,3649.5c-2.3,6.4-3.9,13.1-4.8,19.9"/>
	<path class="st16" d="M1843.9,3732.3c2.9,10.6,3.6,21.7,2.1,32.6c-0.4,2.9-1.2,6.1-3.7,7.6"/>
	<path class="st16" d="M1835,3751.9c1.7,7.9,1.6,16.1-0.2,23.9"/>
	<path class="st16" d="M1818.7,3764c-1.4-0.6-2.3,1.4-2.4,2.9c-0.5,5.1-1.1,10.2-1.6,15.3"/>
	<path class="st16" d="M1801.8,3770.2c-1.9,5.6-3.9,11.3-5.8,16.9"/>
	<path class="st16" d="M1786.6,3775c-2,2.4-3.5,5.2-4.3,8.2"/>
	<path class="st16" d="M3007.4,3715.8"/>
	<path class="st16" d="M3006.6,3713.9c8.1,2.7,13.8,11.2,13.4,19.7"/>
	<path class="st16" d="M3023.4,3710.5c7,12.7,10.1,27.4,8.9,41.8"/>
	<path class="st16" d="M3039.3,3715.4c8.3,16.1,11.7,34.8,9.7,52.8"/>
	<path class="st16" d="M3054,3699.7c4.8,15.6,7.7,31.8,8.6,48.1"/>
	<path class="st16" d="M3068.2,3699.8c2.5,16.6,5,33.3,7.5,49.9"/>
	<path class="st16" d="M3082.2,3698.9c-0.2,11.9,0.6,23.8,2.6,35.6"/>
	<path class="st16" d="M3098.3,3690c2.3,15,3.1,30.2,2.5,45.4"/>
	<path class="st16" d="M3120.5,3693.6c-7,20.3-12.4,41.1-16.1,62.2"/>
	<path class="st16" d="M3135.5,3710.5c-8.9,11.7-14.1,26.2-14.8,40.9"/>
	<path class="st16" d="M3150.8,3705.3c-10.2,16.2-16.4,34.9-18,54"/>
	<path class="st16" d="M3166.7,3716.7c-6.7,8.8-11.1,19.2-12.9,30.2"/>
	<path class="st16" d="M3181.5,3713.8c-5.7,5.7-9.2,13.5-9.7,21.6"/>
	<path class="st16" d="M3195.8,3712.1c-5.6,7.2-9.2,16-10.3,25"/>
	<path class="st16" d="M3212.7,3708.6c-6,9.8-10.2,20.8-12.3,32.1"/>
	<path class="st16" d="M3240.1,3712.9c-12,13.6-20.3,30.5-23.7,48.3"/>
	<path class="st16" d="M3241.2,3737c-4.8,4.5-8.2,10.6-9.4,17.1"/>
	<path class="st16" d="M3056.4,3622.4c0.1,11.9-0.6,23.8-1.9,35.6"/>
	<path class="st16" d="M3041,3630.3c-2.2,3.8-3,8.3-2.4,12.6"/>
	<path class="st16" d="M3060,3633c2.7,0.3,4,3.3,4.7,5.9c2,7.4,2.8,15.1,2.3,22.7"/>
	<path class="st16" d="M3073.3,3634.9c2.9,0.2,4,3.8,4.4,6.7c0.9,6.7,1.8,13.3,2.7,20"/>
	<path class="st16" d="M3095.1,3636.6c0.3,11,0.7,22,1,32.9"/>
	<line class="st16" x1="3108.5" y1="3636" x2="3108.5" y2="3666"/>
	<path class="st16" d="M3126.2,3636.7c-0.6,19.9-2.4,39.8-5.3,59.5"/>
	<path class="st16" d="M3165.8,3626c-4.1,15.8-7.3,31.9-9.6,48"/>
	<path class="st16" d="M3193.4,3626.9c-9.4,15-15.3,32.1-17.2,49.7"/>
	<path class="st16" d="M3210.1,3641.9c-7.4,11.8-12.7,24.8-15.8,38.3"/>
	<path class="st16" d="M3219.1,3665.1c-4.1,5.3-7.2,11.3-9,17.8"/>
	<path class="st16" d="M3142.2,3645.4c-2.6,6.2-4,13-3.9,19.8"/>
	<path class="st16" d="M3230.1,3657.1c0.1,23.5-4.8,47.1-14.4,68.5"/>
	<path class="st16" d="M3239.9,3690.1c-2.1,10.9-5.2,21.6-9.2,31.9"/>
	<path class="st16" d="M3261.6,3685c-6.3,11.8-11.6,24.2-15.9,37"/>
	<path class="st16" d="M3291.1,3677.5c-7,8.9-12.7,18.9-16.8,29.4"/>
	<path class="st16" d="M3318.5,3662.8c-7.7,16.5-15.4,32.9-23.1,49.4"/>
	<path class="st16" d="M3333.3,3676.1c-12,15.6-22.5,32.4-31.2,50.1"/>
	<path class="st16" d="M3339.2,3693.6c-5.3,8-10.5,16-15.8,24c-0.8,1.2-0.9,3.7,0.5,3.4"/>
	<path class="st16" d="M3357.3,3701.7c-4.1,10.8-9.4,21.2-15.6,30.9"/>
	<path class="st16" d="M3376.8,3681.5c-0.2-0.6,0.9-1,1.4-0.6c0.5,0.4,0.6,1.2,0.6,1.8c0.2,9.7,0.5,19.3,0.7,29"/>
	<path class="st16" d="M3391.3,3702.9c-0.6,4.2-1.4,8.4-2.6,12.5"/>
	<path class="st16" d="M3399,3707.5c-1.3,4.9-2.7,9.8-4,14.7"/>
	<path class="st16" d="M3410.2,3711.2c-2.9,5.8-5.1,12-6.5,18.4"/>
	<path class="st16" d="M3439.1,3667c2.4,1.6,2.2,5.1,1.6,7.9c-4,19.9-10.4,39.3-19.1,57.7"/>
	<path class="st16" d="M3468,3682c-11.3,22.1-21.9,44.5-32,67.2"/>
	<path class="st16" d="M3476.7,3701.9c-13.5,17.3-24.3,36.7-31.9,57.3"/>
	<path class="st16" d="M3493.6,3714c-16.3,19-30.1,40.1-41.2,62.5"/>
	<path class="st16" d="M3499.5,3734.8c-7.9,7.9-14.7,16.9-20.2,26.6c-0.9,1.6-0.9,4.6,0.9,4.2"/>
	<path class="st16" d="M3514.7,3747c-5.4,4.5-9.8,10.2-12.7,16.6"/>
	<path class="st16" d="M3530.2,3752c1.1,0.8,1.1,2.6,0.2,3.5"/>
	<path class="st16" d="M3529,3748.5c0.4-1.4,1.7-2.6,3.1-3c5.1,14.6,2.7,31.6-6.4,44.2"/>
	<path class="st16" d="M3554.1,3762.2c-2.2,7-5,13.9-8.3,20.5c2.7-0.3,5.3-0.7,8-1"/>
	<path class="st16" d="M3574.4,3772.7c-2.4,4.3-4.3,8.9-5.7,13.7c-0.4,1.2-0.7,2.6-0.3,3.8s2,2.1,3,1.4"/>
	<path class="st16" d="M3595,3764c-0.3,9.5-2.8,19-7.1,27.5"/>
	<path class="st16" d="M3610.4,3770.2c-3,7.9-6.1,15.9-9.1,23.8"/>
	<path class="st16" d="M3623.8,3779.9c-2.7,9.3-6.8,18.3-12.1,26.5"/>
	<path class="st16" d="M3647.6,3783.3c-6.9,10.6-13.8,21.3-20.7,31.9"/>
	<path class="st16" d="M3664.1,3789.2c-5.3,9.9-11.5,19.3-18.4,28.1"/>
	<path class="st16" d="M3670,3807.5c-6.4,6.1-11.6,13.5-15.2,21.6"/>
	<path class="st16" d="M3685.1,3822.1c-7,7.1-12.9,15.3-17.4,24.3"/>
	<path class="st16" d="M3699.6,3830.4c-4.1,5.7-8.2,11.4-12.3,17.1c0.8-0.4,1.7-0.9,2.5-1.3"/>
	<path class="st16" d="M3706.1,3835.9c0.8-1,2.5-1.3,3.5-0.5c-4.6,7.2-8.8,14.6-12.5,22.2c2,0.5,4-0.6,5.7-1.6
		c6.6-3.7,13.1-7.4,19.7-11.1"/>
	<path class="st16" d="M3730.1,3847.5c-2.1,3.1-4.3,6.3-6.4,9.4"/>
	<path class="st16" d="M3210,3804.8c0.6,3.3,1.3,6.5,1.9,9.8"/>
	<path class="st16" d="M3220.1,3800.2c2.2,2.1,3.4,5.1,3.3,8.1"/>
	<line class="st16" x1="3230.5" y1="3800" x2="3230.5" y2="3821"/>
	<line class="st16" x1="3249.5" y1="3784" x2="3249.5" y2="3824"/>
	<path class="st16" d="M3278,3767.4c-1.2,18.4-2.4,36.8-3.6,55.1"/>
	<path class="st16" d="M3297.8,3773.6c-1.3,18.7-2.9,37.4-4.9,56"/>
	<path class="st16" d="M3314.2,3794.1c-5.1,22.8-10.2,45.6-15.3,68.4"/>
	<path class="st16" d="M3323.3,3815.4c-3.7,11.9-7.3,23.8-11,35.7c-0.9,2.9-1.7,6.3,0.1,8.7"/>
	<path class="st16" d="M3333.9,3821.6c-2,10.2-4.5,20.2-7.4,30.2"/>
	<path class="st16" d="M3343.1,3836.7c0.5,4.2,0,8.5-1.5,12.4"/>
	<path class="st16" d="M3374.9,3802c1.9,16.6,1,33.5-2.6,49.9"/>
	<path class="st16" d="M3406.5,3786.5c-1.9,9.9-3.8,19.8-5.6,29.7"/>
	<path class="st16" d="M3423.1,3784.3c-3.2,11.4-4.7,23.2-4.5,35"/>
	<path class="st16" d="M3443.7,3794.4c-3.1,9.6-5.6,19.4-7.5,29.3c3.5,0,6.9-1.8,8.7-4.7"/>
	<path class="st16" d="M3463.8,3800.1c-2.5,6.2-5,12.4-7.4,18.6c7.7-0.9,12.7-8.8,20.1-11.1c0.6-0.2,1.2-0.3,1.7-0.1
		c1.3,0.6,0.9,2.6,0.2,3.9c-2.2,4-4.4,8.1-6.6,12.1c3-2.4,5.9-4.8,8.9-7.2"/>
	<path class="st16" d="M3498,3810.6c-1.3,1.9-2.7,3.8-4,5.7"/>
	<path class="st16" d="M2206.4,3713.4c-1.8,8.3-2.5,16.8-2.1,25.2"/>
	<path class="st16" d="M2223.2,3702.2c-0.8,11.2-1.7,22.4-2.5,33.6"/>
	<path class="st16" d="M2242,3700.2c-1.6,13.6-4.4,27.1-8.6,40.1"/>
	<path class="st16" d="M2265.6,3707.7c-7.4,14.5-14.3,29.2-20.6,44.1"/>
	<path class="st16" d="M2278,3715.7c-4.9,10-9.8,20-14.7,30.1"/>
	<path class="st16" d="M2275.3,3741.8c-2.3,5.2-4.5,10.5-6.8,15.7"/>
	<path class="st16" d="M2182.5,3723.3c-0.2,3-0.4,6-0.6,9"/>
</g>
<path class="st17" d="M1352.2,2393.9"/>
<path class="st10" d="M2716.3,3214.2c21.5,44.7,17.3,91.3-9.3,104.1l-67.1,35l-29.2,15.2l-100.2,52.2c25.6-14.2,29.2-60.6,7.8-105.1
	c-20.9-43.5-58.2-69.4-85.2-60.1l196-99C2655.7,3143.8,2694.7,3169.6,2716.3,3214.2z"/>
<path class="st8" d="M2700.3,3298.3c11.3-4.4,14.2-24.2,6.5-44.3c-7.8-20.1-23.2-32.8-34.6-28.5l-115.7,56c-12,4.6-15,25.5-6.8,46.7
	c8.2,21.2,24.5,34.6,36.5,30c1-0.4,1.9-0.9,2.7-1.4L2700.3,3298.3z"/>
<path class="st18" d="M2669.3,3291.1l-5.3,2.8c-0.6-5.1-2-10.6-4.1-16c-2.9-7.4-6.7-13.8-11-18.9l5.3-2.8c4.3,5.1,8.1,11.5,11,18.9
	C2667.3,3280.5,2668.7,3286,2669.3,3291.1z"/>
<path class="st18" d="M2652,3299.3l-5.3,2.8c-0.7-5.1-2-10.6-4.1-16c-2.9-7.4-6.7-13.8-11-18.9l5.3-2.9c4.3,5.1,8.1,11.5,11,18.9
	C2650,3288.8,2651.4,3294.2,2652,3299.3z"/>
<path class="st18" d="M2634.8,3307.5l-5.3,2.8c-0.7-5.1-2-10.6-4.1-16c-2.9-7.4-6.7-13.8-11-18.9l5.3-2.8c4.3,5.1,8.1,11.5,11,18.9
	C2632.8,3297,2634.1,3302.4,2634.8,3307.5z"/>
<path class="st1" d="M2588.3,3313.3c6.4,16.7,4,33.1-5.4,36.8c-9.4,3.6-22.2-6.9-28.7-23.6c-6.4-16.7-4-33.1,5.4-36.8
	C2569,3286.1,2581.9,3296.6,2588.3,3313.3z"/>
<path class="st9" d="M2486.5,3302.2c-7.3-1.6-21.7,16.4-21,35.4c-10-14-7.2-54.3,12-50C2483.2,3294,2486.5,3302.2,2486.5,3302.2z"/>
<path class="st19" d="M2514,3317.7c13.5,28,16.2,56.8,8.9,76.4h0c-81.3-1.5-96.7-80.5-62.2-130.6
	C2480.3,3270.2,2500.7,3290.1,2514,3317.7z M2465.5,3337.6c-0.7-19,13.7-37,21-35.4c0,0-3.4-8.2-9-14.7
	C2458.3,3283.3,2455.5,3323.6,2465.5,3337.6z"/>
<path class="st20" d="M2522.9,3394.1c-3.5,9.5-9.4,16.8-17.6,20.8c-24.9,12-61.3-12.1-81.4-53.7c-20.1-41.7-16.2-85.2,8.7-97.1
	c8.4-4,18.1-4,28-0.5C2426.2,3313.6,2441.7,3392.6,2522.9,3394.1z"/>
<path class="st10" d="M2518.1,3315.8c21.4,44.5,17.8,90.9-7.8,105.1l-1.7,0.9c-27.1,13.1-66.9-13.2-88.8-58.6
	c-20.6-42.9-18-87.5,5.1-103.4l8-4h0C2459.9,3246.4,2497.2,3272.3,2518.1,3315.8z M2522.9,3394.1c7.3-19.5,4.6-48.4-8.9-76.4
	c-13.3-27.6-33.8-47.5-53.3-54.3c-9.9-3.4-19.7-3.5-28,0.5c-24.9,12-28.8,55.5-8.7,97.1c20.1,41.7,56.5,65.7,81.4,53.7
	C2513.5,3410.9,2519.4,3403.6,2522.9,3394.1L2522.9,3394.1z"/>
<g>
	<path class="st1" d="M2634.8,3307.5c-0.7-5.1-2-10.6-4.1-16c-2.9-7.4-6.7-13.8-11-18.9l-5.3,2.8c4.3,5.1,8.1,11.5,11,18.9
		c2.1,5.4,3.5,10.9,4.1,16L2634.8,3307.5z"/>
</g>
<g>
	<path class="st1" d="M2652.1,3299.3c-0.7-5.1-2-10.6-4.1-16c-2.9-7.4-6.7-13.8-11-18.9l-5.3,2.8c4.3,5.1,8.1,11.5,11,18.9
		c2.1,5.4,3.5,10.9,4.1,16L2652.1,3299.3z"/>
</g>
<g>
	<path class="st1" d="M2669.3,3291.1c-0.7-5.1-2-10.6-4.1-16c-2.9-7.4-6.7-13.8-11-18.9l-5.3,2.8c4.3,5.1,8.1,11.5,11,18.9
		c2.1,5.4,3.5,10.9,4.1,16L2669.3,3291.1z"/>
</g>
<g>
	<path class="st10" d="M2378.3,3441.6L2378.3,3441.6c-28.3,4-46,14.9-54.1,26.8c3.7-23.3,7.7-70.3-28.7-90.2
		C2346,3405.2,2378.3,3441.6,2378.3,3441.6z"/>
	<path class="st10" d="M2486.2,3500c4.8,5.1,47.6,48.3,72.9,73.7c-20.4-18.5-41.6-21.4-68-17.2c-26.4,4.3-37.6,27.1-37.6,27.1
		l-119.8-75.8l-29.6-14.3v-6.3c22.6,11.1,30.6,14.8,30.6,14.8S2388.9,3430.7,2486.2,3500z"/>
</g>
<g>
	<g>
		<g>
			<path class="st10" d="M2223.7,3403.2c18-1.9,37.5-0.2,52.1,11.6c21.1,17,25,47.1,25.3,72.4c0,1,0.5,2.1,1.5,2.6
				c10.2,5,20.4,10,30.6,14.8c1.6,0.8,3,0.3,4.1-1.1c-1,1.3,0.9-1,1.2-1.4c1.5-1.7,3-3.2,4.6-4.7c5.3-5,11.2-9.4,17.5-13
				c21-12,45.6-14.4,68.9-8.7c18.1,4.4,35,13.1,50.4,23.5c5.6,3.8,10,8.9,14.8,13.7c15.4,15.6,30.8,31.2,46.3,46.7
				c11.4,11.5,22.9,23.1,34.3,34.6c2.7,2.7,7-1.5,4.2-4.2c-26.4-26.6-52.8-53.1-79.1-79.8c-4-4.1-7.9-8.6-12.2-12.4
				c-7.6-6.7-17.7-11.9-26.7-16.4c-7.9-4-16.1-7.4-24.5-9.9c-24.6-7.3-50.9-6.5-74.2,4.8c-11.5,5.6-23,13.8-30.8,24.1
				c1.4-0.4,2.7-0.7,4.1-1.1c-10.3-4.8-20.4-9.8-30.6-14.8c0.5,0.9,1,1.7,1.5,2.6c-0.2-22.7-3.3-47.7-17.3-66.5
				c-9.6-12.9-23.9-20.7-39.7-23.2c-8.7-1.4-17.6-1.3-26.4-0.4C2219.9,3397.6,2219.9,3403.6,2223.7,3403.2L2223.7,3403.2z"/>
		</g>
	</g>
	<g>
		<g>
			<path class="st10" d="M2251.6,3389.8c15.9,1,31.5,6.3,42.7,18c16.1,16.8,19.9,41.7,20.4,64c0.1,3.9,6.1,3.9,6,0
				c-0.5-24-4.9-50.2-22.1-68.3c-12.3-12.9-29.4-18.7-46.9-19.8C2247.7,3383.5,2247.7,3389.5,2251.6,3389.8L2251.6,3389.8z"/>
		</g>
	</g>
	<g>
		<g>
			<path class="st10" d="M2327,3469.2c5.4-34.3,3.2-75.9-31.3-94.3c-1,1.7-2,3.5-3,5.2c30.5,16.3,60.3,37.7,83.4,63.6
				c2.6,2.9,6.8-1.4,4.2-4.2c-23.4-26.3-53.7-48.1-84.6-64.6c-3.4-1.8-6.4,3.4-3,5.2c31.9,17,33.5,55.8,28.5,87.5
				C2320.7,3471.4,2326.4,3473,2327,3469.2L2327,3469.2z"/>
		</g>
	</g>
	<g>
		<g>
			<path class="st10" d="M2326.7,3469.9c7.6-10.9,20.4-17.3,32.8-21.1c21-6.5,43.7-6.8,65.4-4.7c17.9,1.7,35.5,5.3,52.9,9.9
				c3.7,1,5.3-4.8,1.6-5.8c-29-7.6-59.3-12.8-89.3-10.8c-18.1,1.2-37.1,5-52.7,14.8c-6.1,3.9-11.6,8.7-15.8,14.7
				C2319.4,3470.1,2324.5,3473.1,2326.7,3469.9L2326.7,3469.9z"/>
		</g>
	</g>
	<g>
		<g>
			<path class="st10" d="M2325,3482.1c9.5-8.2,19.4-15.6,31.4-19.8c19.6-6.9,41.2-6.4,61.5-3.7c19.6,2.5,38.9,7.3,57.8,12.8
				c3.7,1.1,5.3-4.7,1.6-5.8c-29.8-8.6-61.3-16.1-92.6-14.5c-16.8,0.9-33.3,4.9-47.5,14c-5.9,3.8-11.3,8.2-16.5,12.8
				C2317.9,3480.4,2322.1,3484.6,2325,3482.1L2325,3482.1z"/>
		</g>
	</g>
	<g>
		<g>
			<path class="st10" d="M2579.6,3572.8c-29.4-31-58.8-62.1-88.2-93.1c-4.2-4.5-8.5-8.9-12.7-13.4c-2.7-2.8-6.9,1.4-4.2,4.2
				c29.4,31,58.8,62.1,88.2,93.1c4.2,4.5,8.5,8.9,12.7,13.4C2578,3579.8,2582.3,3575.6,2579.6,3572.8L2579.6,3572.8z"/>
		</g>
	</g>
	<g>
		<g>
			<path class="st10" d="M2582.7,3565.1c-0.5-1.6-2.1-3-3.2-4.3c-2.3-2.7-4.6-5.4-7-8c-8-9.1-16-18.2-24-27.3
				c-18.3-20.7-36.7-41.4-55-62.1c-4.3-4.8-8.5-9.6-12.8-14.4c-2.6-2.9-6.8,1.4-4.2,4.2c29.4,33,58.8,66,87.9,99.3
				c3.1,3.6,6.3,7.2,9.4,10.8c0.9,1,1.8,2.1,2.6,3.1c1,1.1,0.8,1.4,0.5,0.3C2578,3570.4,2583.8,3568.8,2582.7,3565.1L2582.7,3565.1z
				"/>
		</g>
	</g>
	<g>
		<g>
			<path class="st10" d="M2561.2,3571.6c-9.7-8.6-20.9-15.3-33.8-18c-12.8-2.7-26.6-2.1-39.3,0.5c-15.2,3.2-30.2,14-37.2,28.1
				c1.4-0.4,2.7-0.7,4.1-1.1c-18.8-11.9-37.7-23.9-56.5-35.8c-20.9-13.2-41.4-27.4-62.8-39.7c-9.6-5.5-20.1-9.8-30.1-14.6
				c0.5,0.9,1,1.7,1.5,2.6c0-2.1,0-4.2,0-6.3c0-3.9-6-3.9-6,0c0,2.1,0,4.2,0,6.3c0,1,0.6,2.1,1.5,2.6c9.8,4.8,20.1,9,29.7,14.3
				c6.3,3.5,12.2,7.7,18.2,11.5c26.6,16.8,53.2,33.7,79.8,50.5c7.3,4.6,14.5,9.2,21.8,13.8c1.3,0.8,3.4,0.3,4.1-1.1
				c6.2-12.4,18.9-21.9,32.2-25c24.6-5.9,49.6-1.3,68.7,15.7C2559.9,3578.4,2564.1,3574.2,2561.2,3571.6L2561.2,3571.6z"/>
		</g>
	</g>
</g>
</svg>
